<svg id="check-circle" xmlns="http://www.w3.org/2000/svg" width="16" height="16" viewBox="0 0 16 16">
  <path id="Caminho_19146" data-name="Caminho 19146" d="M127.946,200a8,8,0,1,0,8,8A7.936,7.936,0,0,0,127.946,200Zm0,15.2a7.2,7.2,0,0,1-5.09-12.29,7.131,7.131,0,0,1,5.09-2.11,7.2,7.2,0,0,1,0,14.4Z" transform="translate(-119.946 -200)" fill="#2f2f2f"/>
  <path id="Caminho_19147" data-name="Caminho 19147" d="M127.964,211.4l-2.4-2.4a.4.4,0,0,1,.564-.565l2.115,2.115,4.234-4.234a.4.4,0,1,1,.569.57l-4.518,4.514a.393.393,0,0,1-.564,0Z" transform="translate(-121.046 -201.241)" fill="#2f2f2f"/>
</svg>
