<svg id="efi-pay" xmlns="http://www.w3.org/2000/svg" width="77.992" height="28.16" viewBox="0 0 77.992 28.16">
  <rect id="Retângulo_2816" data-name="Retângulo 2816" width="77.992" height="28" fill="none"/>
  <g id="Grupo_25720" data-name="Grupo 25720">
    <path id="Caminho_21299" data-name="Caminho 21299" d="M39.52,7.85l5.811-2.141V0L38.3,5.5a1.461,1.461,0,0,0-.714,1.19A1.326,1.326,0,0,0,39.52,7.85M37.583,27.661h3.738V9.651H37.583Zm-16.956,0h3.738V20.728h9.345v-3.4H24.365a4.175,4.175,0,0,1,4.451-4.519,6.2,6.2,0,0,1,3.568,1.155l2.379-2.684A9.4,9.4,0,0,0,28.918,9.31c-4.927,0-8.291,3.262-8.291,8.02ZM3.806,16.752a4.945,4.945,0,0,1,5.165-3.941c2.719,0,4.52,1.495,4.859,3.941ZM17.67,18.282c0-4.145-2.991-8.971-8.7-8.971A8.834,8.834,0,0,0,0,18.52,9.163,9.163,0,0,0,9.345,28a9.585,9.585,0,0,0,7.782-3.941L14.51,21.918A6.306,6.306,0,0,1,9.243,24.5a5.182,5.182,0,0,1-5.437-4.349H15.825a1.64,1.64,0,0,0,1.846-1.869" fill="#f37021"/>
    <path id="Caminho_21414" data-name="Caminho 21414" d="M18.393-2045v-2.88l-3.2-6.117h1.645l2.3,4.4,2.3-4.4h1.646l-3.162,6.079V-2045Zm-4.19,0-.758-1.928h-4.1L8.6-2045H7.018l3.269-8.259a1.166,1.166,0,0,1,1.085-.738,1.165,1.165,0,0,1,1.082.731l3.33,8.266Zm-4.383-3.265h3.11l-1.568-3.92ZM0-2045v-9H3.894a2.918,2.918,0,0,1,2.166.88,2.921,2.921,0,0,1,.867,2.127,2.871,2.871,0,0,1-.855,2.115,2.992,2.992,0,0,1-2.179.867L1.529-2048V-2045Zm1.529-7.609v3.24H3.8A1.557,1.557,0,0,0,5-2049.855a1.66,1.66,0,0,0,.45-1.176,1.562,1.562,0,0,0-.444-1.143,1.61,1.61,0,0,0-1.2-.45Z" transform="translate(47.111 2072.663)" fill="#f37021" stroke="rgba(0,0,0,0)" stroke-width="1"/>
  </g>
</svg>
