<svg width="64" height="64" viewBox="0 0 64 64" fill="none" xmlns="http://www.w3.org/2000/svg">
<path d="M20.6704 34.2592L42.6666 27.0952V8L16.0384 26.4142C14.3635 27.5536 13.3333 28.6865 13.3333 30.3956C13.3333 33.349 16.5572 35.6278 20.6704 34.2592Z" fill="#FF863E"/>
<path d="M50.3162 63.0558C46.5219 63.0558 42.7276 62.5682 39.0248 61.5777C37.8209 61.2577 36.9828 60.1605 36.9828 58.911V56.5796C36.9828 56.1377 37.3486 55.772 37.7905 55.772C38.2324 55.772 38.5981 56.1377 38.5981 56.5796V58.911C38.5981 59.4291 38.9486 59.8863 39.4514 60.0234C46.5676 61.9282 54.08 61.9129 61.1962 60.0234C61.699 59.8863 62.0495 59.4291 62.0495 58.911V56.5796C62.0495 56.1377 62.4152 55.772 62.8571 55.772C63.299 55.772 63.6648 56.1377 63.6648 56.5796V58.911C63.6648 60.1605 62.8267 61.2577 61.6076 61.5777C57.92 62.5682 54.1257 63.0558 50.3162 63.0558Z" fill="#A4ACBC"/>
<path d="M50.3162 55.8942C46.5219 55.8942 42.7276 55.4065 39.0248 54.4161C37.8209 54.0961 36.9828 52.9989 36.9828 51.7494V49.418C36.9828 48.9761 37.3486 48.6104 37.7905 48.6104C38.2324 48.6104 38.5981 48.9761 38.5981 49.418V51.7494C38.5981 52.2675 38.9486 52.7246 39.4514 52.8618C46.5676 54.7665 54.08 54.7513 61.1962 52.8618C61.699 52.7246 62.0495 52.2675 62.0495 51.7494V49.418C62.0495 48.9761 62.4152 48.6104 62.8571 48.6104C63.299 48.6104 63.6648 48.9761 63.6648 49.418V51.7494C63.6648 52.9989 62.8267 54.0961 61.6076 54.4161C57.92 55.4065 54.1257 55.8942 50.3162 55.8942Z" fill="#A4ACBC"/>
<path d="M50.3162 48.7321C46.5219 48.7321 42.7276 48.2444 39.0248 47.254C37.8209 46.934 36.9828 45.8368 36.9828 44.5873V42.2559C36.9828 41.814 37.3486 41.4482 37.7905 41.4482C38.2324 41.4482 38.5981 41.814 38.5981 42.2559V44.5873C38.5981 45.1054 38.9486 45.5625 39.4514 45.6997C46.5676 47.6044 54.08 47.6044 61.1962 45.6997C61.699 45.5625 62.0495 45.1054 62.0495 44.5873V42.2559C62.0495 41.814 62.4152 41.4482 62.8571 41.4482C63.299 41.4482 63.6648 41.814 63.6648 42.2559V44.5873C63.6648 45.8368 62.8267 46.934 61.6076 47.254C57.92 48.2444 54.1257 48.7321 50.3162 48.7321Z" fill="#A4ACBC"/>
<path d="M50.3162 42.3627C43.9009 42.3627 36.9828 41.0065 36.9828 38.0046C36.9828 35.0027 43.9009 33.6465 50.3162 33.6465C56.7314 33.6465 63.6495 35.0027 63.6495 38.0046C63.6495 41.0065 56.7314 42.3627 50.3162 42.3627ZM50.3162 35.2617C42.7276 35.2617 38.5981 37.0751 38.5981 38.0046C38.5981 38.9341 42.7276 40.7474 50.3162 40.7474C57.9048 40.7474 62.0343 38.9341 62.0343 38.0046C62.0343 37.0751 57.9048 35.2617 50.3162 35.2617Z" fill="#A4ACBC"/>
<path d="M34.6819 42.5453H4.81524C2.16381 42.5453 0 40.3815 0 37.7301V5.83672C0 3.18529 2.16381 1.02148 4.81524 1.02148H50.621C53.2419 1.05196 55.3752 3.20053 55.3752 5.83672V31.6043C55.3752 32.0462 55.0095 32.412 54.5676 32.412C54.1257 32.412 53.76 32.0462 53.76 31.6043V5.83672C53.76 4.0691 52.3276 2.63672 50.56 2.63672H4.81524C3.04762 2.63672 1.61524 4.0691 1.61524 5.83672V37.7301C1.61524 39.4977 3.04762 40.9301 4.81524 40.9301H34.6819C35.1238 40.9301 35.4895 41.2958 35.4895 41.7377C35.4895 42.1796 35.1238 42.5453 34.6819 42.5453Z" fill="#A4ACBC"/>
<path d="M36.2666 48.7167H11.5352C11.2762 48.7167 11.0171 48.5796 10.8647 48.3663C10.7124 48.1529 10.6819 47.8634 10.7886 47.6196L13.2266 41.4482C13.3943 41.0367 13.8666 40.8234 14.2781 40.991C14.6895 41.1586 14.9028 41.6158 14.7352 42.0425L12.7238 47.1167H36.2819C36.7238 47.1167 37.0895 47.4825 37.0895 47.9244C37.0895 48.3663 36.7238 48.732 36.2819 48.732L36.2666 48.7167Z" fill="#A4ACBC"/>
</svg>
