<svg width="64" height="65" viewBox="0 0 64 65" fill="none" xmlns="http://www.w3.org/2000/svg">
<path d="M44.0161 49.5155C37.2091 49.5155 31.6677 43.9739 31.6677 37.1664C31.6677 30.359 37.2091 24.8174 44.0161 24.8174C50.8231 24.8174 56.3645 30.359 56.3645 37.1664C56.3645 43.9739 50.8231 49.5155 44.0161 49.5155ZM44.0161 26.7469C38.2741 26.7469 33.5972 31.4241 33.5972 37.1664C33.5972 42.9087 38.2741 47.586 44.0161 47.586C49.7581 47.586 54.435 42.9087 54.435 37.1664C54.435 31.4241 49.7581 26.7469 44.0161 26.7469Z" fill="#20B6D7"/>
<path fill-rule="evenodd" clip-rule="evenodd" d="M50.046 33.4823C50.3584 33.7948 50.3584 34.3013 50.046 34.6137L43.8255 40.8345C43.5135 41.1466 43.0078 41.147 42.6952 40.8356L38.7132 36.8685C38.4002 36.5567 38.3992 36.0501 38.711 35.7371C39.0229 35.4241 39.5294 35.4232 39.8424 35.735L43.2588 39.1385L48.9146 33.4824C49.227 33.1699 49.7336 33.1699 50.046 33.4823Z" fill="#20B6D7"/>
<path fill-rule="evenodd" clip-rule="evenodd" d="M4.87252 8.86953C3.5084 8.86953 2.40005 9.97781 2.40005 11.342V53.6838C2.40005 55.5111 3.8789 56.9898 5.70609 56.9898H57.4276C57.4787 56.9796 57.5311 56.9743 57.584 56.9743C59.7971 56.9743 61.6001 55.1715 61.6001 52.9582V11.342C61.6001 9.97781 60.4917 8.86953 59.1276 8.86953H4.87252ZM0.800049 11.342C0.800049 9.09413 2.62477 7.26953 4.87252 7.26953H59.1276C61.3753 7.26953 63.2001 9.09413 63.2001 11.342V52.9582C63.2001 56.0047 60.7621 58.4922 57.7348 58.5724C57.6805 58.5839 57.6249 58.5898 57.5686 58.5898H5.70609C2.99529 58.5898 0.800049 56.3948 0.800049 53.6838V11.342Z" fill="#A4ACBC"/>
<path fill-rule="evenodd" clip-rule="evenodd" d="M8 14.2694C8 13.4872 8.61794 12.8691 9.4002 12.8691C10.2051 12.8691 10.8 13.5268 10.8 14.2694C10.8 15.0508 10.1833 15.6695 9.4002 15.6695C8.61821 15.6695 8 15.0518 8 14.2694ZM9.72585 14.595C9.82275 14.4981 9.86545 14.3753 9.86545 14.2694C9.86545 14.1634 9.82273 14.0406 9.72575 13.9436C9.62879 13.8467 9.50606 13.804 9.4002 13.804C9.29425 13.804 9.1712 13.8468 9.07405 13.944C8.97696 14.0412 8.93455 14.1639 8.93455 14.2694C8.93455 14.5111 9.12951 14.7346 9.4002 14.7346C9.5062 14.7346 9.62895 14.6919 9.72585 14.595Z" fill="#A4ACBC"/>
<path d="M9.86545 14.2694C9.86545 14.3753 9.82275 14.4981 9.72585 14.595C9.62895 14.6919 9.5062 14.7346 9.4002 14.7346C9.12951 14.7346 8.93455 14.5111 8.93455 14.2694C8.93455 14.1639 8.97696 14.0412 9.07405 13.944C9.1712 13.8468 9.29425 13.804 9.4002 13.804C9.50606 13.804 9.62879 13.8467 9.72575 13.9436C9.82273 14.0406 9.86545 14.1634 9.86545 14.2694Z" fill="#A4ACBC"/>
<path fill-rule="evenodd" clip-rule="evenodd" d="M14.3999 14.2694C14.3999 13.4872 15.0178 12.8691 15.8001 12.8691C16.605 12.8691 17.1999 13.5268 17.1999 14.2694C17.1999 15.0508 16.5832 15.6695 15.8001 15.6695C15.0181 15.6695 14.3999 15.0518 14.3999 14.2694ZM16.1258 14.595C16.2227 14.4981 16.2654 14.3753 16.2654 14.2694C16.2654 14.1634 16.2226 14.0406 16.1257 13.9436C16.0287 13.8467 15.906 13.804 15.8001 13.804C15.6941 13.804 15.5711 13.8468 15.474 13.944C15.3769 14.0412 15.3344 14.1639 15.3344 14.2694C15.3344 14.5111 15.5294 14.7346 15.8001 14.7346C15.9061 14.7346 16.0289 14.6919 16.1258 14.595Z" fill="#A4ACBC"/>
<path d="M16.2654 14.2694C16.2654 14.3753 16.2227 14.4981 16.1258 14.595C16.0289 14.6919 15.9061 14.7346 15.8001 14.7346C15.5294 14.7346 15.3344 14.5111 15.3344 14.2694C15.3344 14.1639 15.3769 14.0412 15.474 13.944C15.5711 13.8468 15.6941 13.804 15.8001 13.804C15.906 13.804 16.0287 13.8467 16.1257 13.9436C16.2226 14.0406 16.2654 14.1634 16.2654 14.2694Z" fill="#A4ACBC"/>
<path fill-rule="evenodd" clip-rule="evenodd" d="M20.8 14.2694C20.8 13.4872 21.418 12.8691 22.2003 12.8691C23.0052 12.8691 23.6 13.5268 23.6 14.2694C23.6 15.0508 22.9833 15.6695 22.2003 15.6695C21.4183 15.6695 20.8 15.0518 20.8 14.2694ZM22.5259 14.595C22.6228 14.4981 22.6655 14.3753 22.6655 14.2694C22.6655 14.1634 22.6228 14.0406 22.5258 13.9436C22.4288 13.8467 22.3061 13.804 22.2003 13.804C22.0943 13.804 21.9713 13.8468 21.8741 13.944C21.777 14.0412 21.7346 14.1639 21.7346 14.2694C21.7346 14.5111 21.9296 14.7346 22.2003 14.7346C22.3062 14.7346 22.429 14.6919 22.5259 14.595Z" fill="#A4ACBC"/>
<path d="M22.6655 14.2694C22.6655 14.3753 22.6228 14.4981 22.5259 14.595C22.429 14.6919 22.3062 14.7346 22.2003 14.7346C21.9296 14.7346 21.7346 14.5111 21.7346 14.2694C21.7346 14.1639 21.777 14.0412 21.8741 13.944C21.9713 13.8468 22.0943 13.804 22.2003 13.804C22.3061 13.804 22.4288 13.8467 22.5258 13.9436C22.6228 14.0406 22.6655 14.1634 22.6655 14.2694Z" fill="#A4ACBC"/>
<path fill-rule="evenodd" clip-rule="evenodd" d="M0.800049 21.0979C0.800049 20.656 1.15822 20.2979 1.60005 20.2979H62.4001C62.8419 20.2979 63.2001 20.656 63.2001 21.0979C63.2001 21.5397 62.8419 21.8979 62.4001 21.8979H1.60005C1.15822 21.8979 0.800049 21.5397 0.800049 21.0979Z" fill="#A4ACBC"/>
<path fill-rule="evenodd" clip-rule="evenodd" d="M6.9126 27.5803C6.9126 27.1384 7.27077 26.7803 7.7126 26.7803H22.5921C23.0339 26.7803 23.3921 27.1384 23.3921 27.5803V33.5234C23.3921 33.9652 23.0339 34.3234 22.5921 34.3234C22.1503 34.3234 21.7921 33.9652 21.7921 33.5234V28.3803H8.5126V33.5234C8.5126 33.9652 8.15443 34.3234 7.7126 34.3234C7.27077 34.3234 6.9126 33.9652 6.9126 33.5234V27.5803Z" fill="#FF863E"/>
<path fill-rule="evenodd" clip-rule="evenodd" d="M6.9126 38.3547C6.9126 37.9129 7.27077 37.5547 7.7126 37.5547H22.5921C23.034 37.5547 23.3921 37.9129 23.3921 38.3547C23.3921 38.7965 23.034 39.1547 22.5921 39.1547H7.7126C7.27077 39.1547 6.9126 38.7965 6.9126 38.3547Z" fill="#FF863E"/>
<path fill-rule="evenodd" clip-rule="evenodd" d="M6.9126 42.2609C6.9126 41.8191 7.27077 41.4609 7.7126 41.4609H22.5921C23.034 41.4609 23.3921 41.8191 23.3921 42.2609C23.3921 42.7028 23.034 43.0609 22.5921 43.0609H7.7126C7.27077 43.0609 6.9126 42.7028 6.9126 42.2609Z" fill="#FF863E"/>
<path fill-rule="evenodd" clip-rule="evenodd" d="M6.9126 46.1506C6.9126 45.7088 7.27077 45.3506 7.7126 45.3506H22.5921C23.034 45.3506 23.3921 45.7088 23.3921 46.1506C23.3921 46.5924 23.034 46.9506 22.5921 46.9506H7.7126C7.27077 46.9506 6.9126 46.5924 6.9126 46.1506Z" fill="#FF863E"/>
</svg>
