<svg width="64" height="65" viewBox="0 0 64 65" fill="none" xmlns="http://www.w3.org/2000/svg">
<g clip-path="url(#clip0_1961_12216)">
<path fill-rule="evenodd" clip-rule="evenodd" d="M56.3569 30.8411C56.788 30.8411 57.1374 31.1893 57.1374 31.6188V32.893C57.1374 33.3225 56.788 33.6707 56.3569 33.6707C55.9259 33.6707 55.5764 33.3225 55.5764 32.893V31.6188C55.5764 31.1893 55.9259 30.8411 56.3569 30.8411Z" fill="#A4ACBC"/>
<path fill-rule="evenodd" clip-rule="evenodd" d="M50.9812 30.8411C51.4122 30.8411 51.7617 31.1893 51.7617 31.6188V32.893C51.7617 33.3225 51.4122 33.6708 50.9812 33.6708C50.5501 33.6708 50.2007 33.3225 50.2007 32.893V31.6188C50.2007 31.1893 50.5501 30.8411 50.9812 30.8411Z" fill="#A4ACBC"/>
<path fill-rule="evenodd" clip-rule="evenodd" d="M53.6715 34.0217C54.1025 34.0217 54.452 34.37 54.452 34.7995V36.0738C54.452 36.5033 54.1025 36.8515 53.6715 36.8515C53.2404 36.8515 52.891 36.5033 52.891 36.0738V34.7995C52.891 34.37 53.2404 34.0217 53.6715 34.0217Z" fill="#A4ACBC"/>
<path fill-rule="evenodd" clip-rule="evenodd" d="M56.3569 37.2024C56.788 37.2024 57.1374 37.5506 57.1374 37.9802V39.2543C57.1374 39.6839 56.788 40.0321 56.3569 40.0321C55.9259 40.0321 55.5764 39.6839 55.5764 39.2543V37.9802C55.5764 37.5506 55.9259 37.2024 56.3569 37.2024Z" fill="#A4ACBC"/>
<path fill-rule="evenodd" clip-rule="evenodd" d="M50.9812 37.2024C51.4122 37.2024 51.7617 37.5506 51.7617 37.9802V39.2543C51.7617 39.6839 51.4122 40.0321 50.9812 40.0321C50.5501 40.0321 50.2007 39.6839 50.2007 39.2543V37.9802C50.2007 37.5506 50.5501 37.2024 50.9812 37.2024Z" fill="#A4ACBC"/>
<path fill-rule="evenodd" clip-rule="evenodd" d="M53.6715 40.3831C54.1025 40.3831 54.452 40.7313 54.452 41.1608V42.4351C54.452 42.8646 54.1025 43.2129 53.6715 43.2129C53.2404 43.2129 52.891 42.8646 52.891 42.4351V41.1608C52.891 40.7313 53.2404 40.3831 53.6715 40.3831Z" fill="#A4ACBC"/>
<path fill-rule="evenodd" clip-rule="evenodd" d="M56.3569 43.5637C56.788 43.5637 57.1374 43.9119 57.1374 44.3415V45.6156C57.1374 46.0452 56.788 46.3934 56.3569 46.3934C55.9259 46.3934 55.5764 46.0452 55.5764 45.6156V44.3415C55.5764 43.9119 55.9259 43.5637 56.3569 43.5637Z" fill="#A4ACBC"/>
<path fill-rule="evenodd" clip-rule="evenodd" d="M50.9812 43.5637C51.4122 43.5637 51.7617 43.9119 51.7617 44.3415V45.6156C51.7617 46.0452 51.4122 46.3934 50.9812 46.3934C50.5501 46.3934 50.2007 46.0452 50.2007 45.6156V44.3415C50.2007 43.9119 50.5501 43.5637 50.9812 43.5637Z" fill="#A4ACBC"/>
<path fill-rule="evenodd" clip-rule="evenodd" d="M20.1847 6.01747C19.6574 6.01747 19.2532 6.4326 19.2532 6.91623V58.0076C19.2532 58.4912 19.6574 58.9064 20.1847 58.9064H43.8153C44.3426 58.9064 44.7468 58.4912 44.7468 58.0076V6.91623C44.7468 6.4326 44.3426 6.01747 43.8153 6.01747H20.1847ZM17.6923 6.91623C17.6923 5.54801 18.8211 4.46191 20.1847 4.46191H43.8153C45.1789 4.46191 46.3078 5.54801 46.3078 6.91623V58.0076C46.3078 59.3758 45.1789 60.4619 43.8153 60.4619H20.1847C18.8211 60.4619 17.6923 59.3758 17.6923 58.0076V6.91623Z" fill="#A4ACBC"/>
<path d="M39.7309 14.7864H24.2692C23.7311 14.7864 23.2909 14.3553 23.2909 13.8284C23.2909 13.3015 23.7311 12.8704 24.2692 12.8704H39.7309C40.269 12.8704 40.7092 13.3015 40.7092 13.8284C40.7092 14.3553 40.269 14.7864 39.7309 14.7864Z" fill="#20B6D7"/>
<path d="M39.7309 19.0064H24.2692C23.7311 19.0064 23.2909 18.5753 23.2909 18.0484C23.2909 17.5214 23.7311 17.0903 24.2692 17.0903H39.7309C40.269 17.0903 40.7092 17.5214 40.7092 18.0484C40.7092 18.5753 40.269 19.0064 39.7309 19.0064Z" fill="#20B6D7"/>
<path d="M39.7309 23.2266H24.2692C23.7311 23.2266 23.2909 22.7955 23.2909 22.2686C23.2909 21.7417 23.7311 21.3105 24.2692 21.3105H39.7309C40.269 21.3105 40.7092 21.7417 40.7092 22.2686C40.7092 22.7955 40.269 23.2266 39.7309 23.2266Z" fill="#20B6D7"/>
<path fill-rule="evenodd" clip-rule="evenodd" d="M25.3279 41.4387C25.3279 41.0091 25.6773 40.6609 26.1084 40.6609H37.9015C38.3326 40.6609 38.682 41.0091 38.682 41.4387C38.682 41.8682 38.3326 42.2164 37.9015 42.2164H26.1084C25.6773 42.2164 25.3279 41.8682 25.3279 41.4387Z" fill="#A4ACBC"/>
<path fill-rule="evenodd" clip-rule="evenodd" d="M28.7545 43.5732C29.1855 43.5732 29.535 43.9215 29.535 44.351C29.535 45.6626 30.6262 46.7538 32.0025 46.7538C33.3795 46.7538 34.4698 45.6667 34.4698 44.351C34.4698 43.9215 34.8193 43.5732 35.2503 43.5732C35.6814 43.5732 36.0308 43.9215 36.0308 44.351C36.0308 46.5513 34.2158 48.3094 32.0025 48.3094C29.7884 48.3094 27.974 46.5458 27.974 44.351C27.974 43.9215 28.3234 43.5732 28.7545 43.5732Z" fill="#A4ACBC"/>
<path fill-rule="evenodd" clip-rule="evenodd" d="M44.7517 10.0251C44.7517 9.59554 45.1011 9.24731 45.5322 9.24731H61.1407C62.7083 9.24731 64 10.4929 64 12.0609V52.8583C64 54.4263 62.7083 55.6719 61.1407 55.6719H45.5322C45.1011 55.6719 44.7517 55.3237 44.7517 54.8941C44.7517 54.4645 45.1011 54.1163 45.5322 54.1163H61.1407C61.872 54.1163 62.4391 53.5417 62.4391 52.8583V12.0609C62.4391 11.3775 61.872 10.8029 61.1407 10.8029H45.5322C45.1011 10.8029 44.7517 10.4546 44.7517 10.0251Z" fill="#A4ACBC"/>
<path fill-rule="evenodd" clip-rule="evenodd" d="M50.1763 17.1049C50.1763 16.6754 50.5257 16.3271 50.9568 16.3271H56.3813C56.8123 16.3271 57.1618 16.6754 57.1618 17.1049C57.1618 17.5345 56.8123 17.8827 56.3813 17.8827H50.9568C50.5257 17.8827 50.1763 17.5345 50.1763 17.1049Z" fill="#A4ACBC"/>
<path fill-rule="evenodd" clip-rule="evenodd" d="M50.1763 20.5825C50.1763 20.1529 50.5257 19.8047 50.9568 19.8047H56.3813C56.8123 19.8047 57.1618 20.1529 57.1618 20.5825C57.1618 21.012 56.8123 21.3602 56.3813 21.3602H50.9568C50.5257 21.3602 50.1763 21.012 50.1763 20.5825Z" fill="#A4ACBC"/>
<path fill-rule="evenodd" clip-rule="evenodd" d="M50.1763 24.06C50.1763 23.6304 50.5257 23.2822 50.9568 23.2822H56.3813C56.8123 23.2822 57.1618 23.6304 57.1618 24.06C57.1618 24.4896 56.8123 24.8378 56.3813 24.8378H50.9568C50.5257 24.8378 50.1763 24.4896 50.1763 24.06Z" fill="#A4ACBC"/>
<path fill-rule="evenodd" clip-rule="evenodd" d="M7.64804 30.8411C8.07909 30.8411 8.42853 31.1893 8.42853 31.6188V32.893C8.42853 33.3225 8.07909 33.6708 7.64804 33.6708C7.21699 33.6708 6.86755 33.3225 6.86755 32.893V31.6188C6.86755 31.1893 7.21699 30.8411 7.64804 30.8411Z" fill="#A4ACBC"/>
<path fill-rule="evenodd" clip-rule="evenodd" d="M13.0238 30.8411C13.4548 30.8411 13.8043 31.1893 13.8043 31.6188V32.893C13.8043 33.3225 13.4548 33.6707 13.0238 33.6707C12.5927 33.6707 12.2433 33.3225 12.2433 32.893V31.6188C12.2433 31.1893 12.5927 30.8411 13.0238 30.8411Z" fill="#A4ACBC"/>
<path fill-rule="evenodd" clip-rule="evenodd" d="M10.3335 34.0217C10.7645 34.0217 11.114 34.37 11.114 34.7995V36.0738C11.114 36.5033 10.7645 36.8515 10.3335 36.8515C9.90241 36.8515 9.55298 36.5033 9.55298 36.0738V34.7995C9.55298 34.37 9.90241 34.0217 10.3335 34.0217Z" fill="#A4ACBC"/>
<path fill-rule="evenodd" clip-rule="evenodd" d="M7.64804 37.2024C8.07909 37.2024 8.42853 37.5506 8.42853 37.9802V39.2543C8.42853 39.6839 8.07909 40.0321 7.64804 40.0321C7.21699 40.0321 6.86755 39.6839 6.86755 39.2543V37.9802C6.86755 37.5506 7.21699 37.2024 7.64804 37.2024Z" fill="#A4ACBC"/>
<path fill-rule="evenodd" clip-rule="evenodd" d="M13.0238 37.2024C13.4548 37.2024 13.8043 37.5506 13.8043 37.9802V39.2543C13.8043 39.6839 13.4548 40.0321 13.0238 40.0321C12.5927 40.0321 12.2433 39.6839 12.2433 39.2543V37.9802C12.2433 37.5506 12.5927 37.2024 13.0238 37.2024Z" fill="#A4ACBC"/>
<path fill-rule="evenodd" clip-rule="evenodd" d="M10.3335 40.3831C10.7645 40.3831 11.114 40.7313 11.114 41.1608V42.4351C11.114 42.8646 10.7645 43.2129 10.3335 43.2129C9.90241 43.2129 9.55298 42.8646 9.55298 42.4351V41.1608C9.55298 40.7313 9.90241 40.3831 10.3335 40.3831Z" fill="#A4ACBC"/>
<path fill-rule="evenodd" clip-rule="evenodd" d="M7.64804 43.5637C8.07909 43.5637 8.42853 43.9119 8.42853 44.3415V45.6156C8.42853 46.0452 8.07909 46.3934 7.64804 46.3934C7.21699 46.3934 6.86755 46.0452 6.86755 45.6156V44.3415C6.86755 43.9119 7.21699 43.5637 7.64804 43.5637Z" fill="#A4ACBC"/>
<path fill-rule="evenodd" clip-rule="evenodd" d="M13.0238 43.5637C13.4548 43.5637 13.8043 43.9119 13.8043 44.3415V45.6156C13.8043 46.0452 13.4548 46.3934 13.0238 46.3934C12.5927 46.3934 12.2433 46.0452 12.2433 45.6156V44.3415C12.2433 43.9119 12.5927 43.5637 13.0238 43.5637Z" fill="#A4ACBC"/>
<path fill-rule="evenodd" clip-rule="evenodd" d="M0 12.0609C0 10.4906 1.29901 9.24731 2.86424 9.24731H18.4727C18.9038 9.24731 19.2532 9.59554 19.2532 10.0251C19.2532 10.4546 18.9038 10.8029 18.4727 10.8029H2.86424C2.1305 10.8029 1.56098 11.3799 1.56098 12.0609V52.8583C1.56098 53.5393 2.1305 54.1163 2.86424 54.1163H18.4727C18.9038 54.1163 19.2532 54.4645 19.2532 54.8941C19.2532 55.3237 18.9038 55.6719 18.4727 55.6719H2.86424C1.29901 55.6719 0 54.4286 0 52.8583V12.0609Z" fill="#A4ACBC"/>
<path fill-rule="evenodd" clip-rule="evenodd" d="M6.84314 17.1049C6.84314 16.6754 7.19258 16.3271 7.62363 16.3271H13.0483C13.4793 16.3271 13.8288 16.6754 13.8288 17.1049C13.8288 17.5345 13.4793 17.8827 13.0483 17.8827H7.62363C7.19258 17.8827 6.84314 17.5345 6.84314 17.1049Z" fill="#A4ACBC"/>
<path fill-rule="evenodd" clip-rule="evenodd" d="M6.84314 20.5825C6.84314 20.1529 7.19258 19.8047 7.62363 19.8047H13.0483C13.4793 19.8047 13.8288 20.1529 13.8288 20.5825C13.8288 21.012 13.4793 21.3602 13.0483 21.3602H7.62363C7.19258 21.3602 6.84314 21.012 6.84314 20.5825Z" fill="#A4ACBC"/>
<path fill-rule="evenodd" clip-rule="evenodd" d="M6.84314 24.06C6.84314 23.6304 7.19258 23.2822 7.62363 23.2822H13.0483C13.4793 23.2822 13.8288 23.6304 13.8288 24.06C13.8288 24.4896 13.4793 24.8378 13.0483 24.8378H7.62363C7.19258 24.8378 6.84314 24.4896 6.84314 24.06Z" fill="#A4ACBC"/>
</g>
<defs>
<clipPath id="clip0_1961_12216">
<rect width="64" height="64" fill="white" transform="translate(0 0.461914)"/>
</clipPath>
</defs>
</svg>
