<svg width="48" height="48" viewBox="0 0 48 48" fill="none" xmlns="http://www.w3.org/2000/svg">
<path fill-rule="evenodd" clip-rule="evenodd" d="M11.8389 0H42.2814V4.44643C42.2814 4.7778 42.0127 5.04643 41.6814 5.04643C41.35 5.04643 41.0814 4.7778 41.0814 4.44643V1.2H13.0389V16.7635H16.2622C16.5935 16.7635 16.8622 17.0321 16.8622 17.3635C16.8622 17.6949 16.5935 17.9635 16.2622 17.9635H11.8389V0Z" fill="#A4ACBC"/>
<path fill-rule="evenodd" clip-rule="evenodd" d="M2.81421 10.0497C2.81421 8.85722 3.78313 7.88818 4.97562 7.88818H12.4383C12.7697 7.88818 13.0383 8.15681 13.0383 8.48818C13.0383 8.81955 12.7697 9.08818 12.4383 9.08818H4.97562C4.44595 9.08818 4.01421 9.51989 4.01421 10.0497V31.9456C4.01421 32.4754 4.44595 32.9071 4.97562 32.9071H35.5613C36.091 32.9071 36.5227 32.4754 36.5227 31.9456V21.256C36.5227 20.9246 36.7914 20.656 37.1227 20.656C37.4541 20.656 37.7227 20.9246 37.7227 21.256V31.9456C37.7227 33.138 36.7538 34.1071 35.5613 34.1071H4.97562C3.78313 34.1071 2.81421 33.138 2.81421 31.9456V10.0497Z" fill="#A4ACBC"/>
<path fill-rule="evenodd" clip-rule="evenodd" d="M11.8773 32.9603C12.1856 33.0816 12.3373 33.43 12.2159 33.7383L11.0114 36.7995H29.5114L28.2984 33.7397C28.1763 33.4317 28.3271 33.083 28.6351 32.9608C28.9432 32.8387 29.2919 32.9895 29.414 33.2975L30.9524 37.1784C31.0257 37.3631 31.0026 37.5722 30.891 37.7366C30.7793 37.901 30.5934 37.9995 30.3946 37.9995H10.1305C9.93202 37.9995 9.74637 37.9013 9.63463 37.7372C9.52288 37.5732 9.49951 37.3645 9.57219 37.1798L11.0993 33.2989C11.2206 32.9906 11.5689 32.839 11.8773 32.9603Z" fill="#A4ACBC"/>
<path fill-rule="evenodd" clip-rule="evenodd" d="M5.56483 40.0475C5.67063 39.857 5.87144 39.7388 6.08938 39.7388H34.4477C34.7127 39.7388 34.9375 39.9105 35.017 40.1487L37.901 45.3424C38.557 46.5336 37.6953 48.0001 36.3306 48.0001H4.19496C2.83033 48.0001 1.96862 46.5336 2.62457 45.3424L2.62559 45.3406L5.56483 40.0475ZM34.0831 40.9388H6.4425L3.67572 45.9213C3.67557 45.9215 3.67543 45.9218 3.67528 45.9221C3.45949 46.3153 3.74588 46.8001 4.19496 46.8001H36.3306C36.7798 46.8001 37.0662 46.3151 36.8502 45.9218C36.8501 45.9216 36.85 45.9215 36.8499 45.9213L34.0831 40.9388Z" fill="#A4ACBC"/>
<path d="M5.94043 45.1725L7.39841 42.5547H33.1275L34.5742 45.1725H5.94043Z" fill="#20B6D7"/>
<path fill-rule="evenodd" clip-rule="evenodd" d="M15.6631 3.84619H46.1167V21.7982H25.356C25.0246 21.7982 24.756 21.5296 24.756 21.1982C24.756 20.8668 25.0246 20.5982 25.356 20.5982H44.9167V5.04619H16.8631V28.294C16.8631 28.6254 16.5945 28.894 16.2631 28.894C15.9317 28.894 15.6631 28.6254 15.6631 28.294V3.84619Z" fill="#FF863E"/>
<path fill-rule="evenodd" clip-rule="evenodd" d="M24.9356 12.6473C25.072 12.6473 25.1797 12.5392 25.1797 12.4032C25.1797 12.2672 25.072 12.1591 24.9356 12.1591C24.7995 12.1591 24.6916 12.2669 24.6916 12.4032C24.6916 12.5395 24.7995 12.6473 24.9356 12.6473ZM23.9797 12.4032C23.9797 11.8768 24.4088 11.4473 24.9356 11.4473C25.462 11.4473 25.8916 11.8765 25.8916 12.4032C25.8916 12.9299 25.462 13.3591 24.9356 13.3591C24.4088 13.3591 23.9797 12.9296 23.9797 12.4032Z" fill="#FF863E"/>
<path d="M25.1797 12.4032C25.1797 12.5392 25.072 12.6473 24.9356 12.6473C24.7995 12.6473 24.6916 12.5395 24.6916 12.4032C24.6916 12.2669 24.7995 12.1591 24.9356 12.1591C25.072 12.1591 25.1797 12.2672 25.1797 12.4032Z" fill="#FF863E"/>
<path fill-rule="evenodd" clip-rule="evenodd" d="M36.8325 12.6473C36.9685 12.6473 37.0765 12.5395 37.0765 12.4032C37.0765 12.2669 36.9685 12.1591 36.8325 12.1591C36.6961 12.1591 36.5883 12.2672 36.5883 12.4032C36.5883 12.5392 36.6961 12.6473 36.8325 12.6473ZM35.8765 12.4032C35.8765 11.8765 36.306 11.4473 36.8325 11.4473C37.3592 11.4473 37.7883 11.8768 37.7883 12.4032C37.7883 12.9296 37.3592 13.3591 36.8325 13.3591C36.306 13.3591 35.8765 12.9299 35.8765 12.4032Z" fill="#FF863E"/>
<path d="M37.0765 12.4032C37.0765 12.5395 36.9685 12.6473 36.8325 12.6473C36.6961 12.6473 36.5883 12.5392 36.5883 12.4032C36.5883 12.2672 36.6961 12.1591 36.8325 12.1591C36.9685 12.1591 37.0765 12.2669 37.0765 12.4032Z" fill="#FF863E"/>
<path fill-rule="evenodd" clip-rule="evenodd" d="M28.6028 11.1173C28.6028 9.84447 29.6291 8.81802 30.902 8.81802C32.1748 8.81802 33.2011 9.84447 33.2011 11.1173C33.2011 11.4487 32.9325 11.7173 32.6011 11.7173C32.2698 11.7173 32.0011 11.4487 32.0011 11.1173C32.0011 10.5071 31.512 10.018 30.902 10.018C30.2919 10.018 29.8028 10.5071 29.8028 11.1173C29.8028 11.4117 29.9009 11.5948 30.0767 11.7513C30.281 11.9331 30.6081 12.0917 31.0858 12.2455C31.563 12.3984 32.0773 12.618 32.4804 12.9675C32.904 13.3348 33.2011 13.8456 33.2011 14.516C33.2011 15.7888 32.1748 16.8152 30.902 16.8152C29.6291 16.8152 28.6028 15.7888 28.6028 14.516C28.6028 14.1846 28.8714 13.916 29.2028 13.916C29.5342 13.916 29.8028 14.1846 29.8028 14.516C29.8028 15.1261 30.2919 15.6152 30.902 15.6152C31.512 15.6152 32.0011 15.1261 32.0011 14.516C32.0011 14.2448 31.8964 14.0495 31.6943 13.8742C31.4718 13.6812 31.1371 13.5221 30.7188 13.388C30.1977 13.2203 29.6745 12.9998 29.2789 12.6477C28.8549 12.2703 28.6028 11.7644 28.6028 11.1173Z" fill="#FF863E"/>
<path fill-rule="evenodd" clip-rule="evenodd" d="M30.8901 15.6268C31.2215 15.6268 31.4901 15.8954 31.4901 16.2268V17.1797C31.4901 17.5111 31.2215 17.7797 30.8901 17.7797C30.5587 17.7797 30.2901 17.5111 30.2901 17.1797V16.2268C30.2901 15.8954 30.5587 15.6268 30.8901 15.6268Z" fill="#FF863E"/>
<path fill-rule="evenodd" clip-rule="evenodd" d="M30.8901 7.85352C31.2215 7.85352 31.4901 8.12214 31.4901 8.45352V9.41802C31.4901 9.74939 31.2215 10.018 30.8901 10.018C30.5587 10.018 30.2901 9.74939 30.2901 9.41802V8.45352C30.2901 8.12214 30.5587 7.85352 30.8901 7.85352Z" fill="#FF863E"/>
<path fill-rule="evenodd" clip-rule="evenodd" d="M19.5116 20.6675C19.843 20.6675 20.1116 20.9361 20.1116 21.2675V26.1702C20.1116 26.5016 19.843 26.7702 19.5116 26.7702C19.1803 26.7702 18.9116 26.5016 18.9116 26.1702V21.2675C18.9116 20.9361 19.1803 20.6675 19.5116 20.6675Z" fill="#FF863E"/>
<path fill-rule="evenodd" clip-rule="evenodd" d="M22.7606 20.6675C23.092 20.6675 23.3606 20.9361 23.3606 21.2675V24.0001C23.3606 24.3315 23.092 24.6001 22.7606 24.6001C22.4293 24.6001 22.1606 24.3315 22.1606 24.0001V21.2675C22.1606 20.9361 22.4293 20.6675 22.7606 20.6675Z" fill="#FF863E"/>
</svg>
