<svg id="info-circle" xmlns="http://www.w3.org/2000/svg" width="20.002" height="20" viewBox="0 0 20.002 20">
  <path id="Caminho_19614" data-name="Caminho 19614" d="M89.942,200a10,10,0,1,0,10,10A9.928,9.928,0,0,0,89.942,200Zm0,19a9,9,0,1,1,9-9A9.01,9.01,0,0,1,89.942,219Z" transform="translate(-79.94 -200)" fill="#0ba1c2"/>
  <path id="Alert" d="M89.942,206.726a.809.809,0,0,1-.6-.259.862.862,0,0,1,0-1.218.809.809,0,0,1,.6-.259.861.861,0,0,1,.609,1.477A.835.835,0,0,1,89.942,206.726Zm.7,1.148V215h-1.4v-7.126Z" transform="translate(-79.94 -200)" fill="#0ba1c2"/>
</svg>
