<svg id="lightbulb-on" xmlns="http://www.w3.org/2000/svg" width="20" height="20" viewBox="0 0 20 20">
  <rect id="Retângulo_3018" data-name="Retângulo 3018" width="20" height="20" fill="none"/>
  <path id="Caminho_21417" data-name="Caminho 21417" d="M10,1A5.874,5.874,0,0,0,4.133,6.866h0v0a5.041,5.041,0,0,0,.074.754,5.393,5.393,0,0,0,.564,1.629c.432.816.9,1.534,1.24,2.058.126.194.235.36.316.493a6.968,6.968,0,0,1,.937,3.145v1.761A2.291,2.291,0,0,0,9.553,19h.894a2.291,2.291,0,0,0,2.29-2.289V14.948a6.968,6.968,0,0,1,.936-3.144c.079-.131.186-.294.31-.484.342-.526.811-1.247,1.245-2.068A5.443,5.443,0,0,0,15.8,7.623a5.379,5.379,0,0,0,.073-.757h0A5.874,5.874,0,0,0,10,1M8.264,15.42h3.473v.789H8.264ZM10.447,18H9.553a1.291,1.291,0,0,1-1.188-.789h3.271A1.292,1.292,0,0,1,10.447,18m3.9-9.214c-.413.782-.867,1.481-1.2,1.991-.13.2-.241.37-.325.508A7.773,7.773,0,0,0,11.8,14.42H8.2A7.773,7.773,0,0,0,7.18,11.283c-.085-.139-.2-.314-.331-.518-.33-.509-.783-1.2-1.193-1.98a4.458,4.458,0,0,1-.465-1.334,4.055,4.055,0,0,1-.057-.6,4.866,4.866,0,0,1,9.732.005,4.122,4.122,0,0,1-.056.593,4.347,4.347,0,0,1-.466,1.332" transform="translate(0)" fill="#f39c12"/>
  <path id="Caminho_21418" data-name="Caminho 21418" d="M9.076,3.268A2.68,2.68,0,0,0,6.4,5.945a.5.5,0,0,0,1,0A1.679,1.679,0,0,1,9.076,4.268a.5.5,0,0,0,0-1" transform="translate(0)" fill="#f39c12"/>
  <path id="Caminho_21419" data-name="Caminho 21419" d="M2.188,4.926a.5.5,0,0,0,.625-.78l-2-1.6a.5.5,0,0,0-.625.78Z" transform="translate(0)" fill="#f39c12"/>
  <path id="Caminho_21420" data-name="Caminho 21420" d="M2.5,6.984H.5a.5.5,0,0,0,0,1h2a.5.5,0,0,0,0-1" transform="translate(0)" fill="#f39c12"/>
  <path id="Caminho_21421" data-name="Caminho 21421" d="M2.187,10.108l-2,1.6a.5.5,0,1,0,.625.78l2-1.6a.5.5,0,0,0-.625-.78" transform="translate(0)" fill="#f39c12"/>
  <path id="Caminho_21422" data-name="Caminho 21422" d="M17.5,5a.494.494,0,0,0,.312-.11l2-1.6a.5.5,0,0,0-.625-.78l-2,1.6A.5.5,0,0,0,17.5,5" transform="translate(0)" fill="#f39c12"/>
  <path id="Caminho_21423" data-name="Caminho 21423" d="M17.5,7.95h2a.5.5,0,0,0,0-1h-2a.5.5,0,0,0,0,1" transform="translate(0)" fill="#f39c12"/>
  <path id="Caminho_21424" data-name="Caminho 21424" d="M17.813,10.075a.5.5,0,0,0-.625.78l2,1.6a.5.5,0,0,0,.625-.78Z" transform="translate(0)" fill="#f39c12"/>
</svg>
