<svg width="24" height="24" viewBox="0 0 24 24" fill="none" xmlns="http://www.w3.org/2000/svg">
<path d="M21.0659 6.17542C20.8233 7.72146 20.5654 9.26487 20.342 10.8131C20.1303 12.2801 19.9684 13.7537 19.7507 15.2204C19.7045 15.4836 19.5677 15.7224 19.3641 15.8954C17.0627 17.6736 14.7447 19.43 12.4259 21.1889C12.3888 21.2173 12.3159 21.1981 12.1427 21.2073C12.1427 19.5439 12.1226 17.8883 12.1671 16.2327C12.1732 16.0097 12.4678 15.7423 12.6908 15.5873C13.7633 14.8455 14.8813 14.1679 15.9295 13.3951C16.2693 13.1313 16.5034 12.7545 16.5892 12.3329C16.7523 11.2529 16.8439 10.1632 16.8633 9.07113C16.8785 8.24989 17.1303 7.72669 17.9398 7.41295C19.0041 7.00015 20.0234 6.47171 21.0628 5.99302L21.0659 6.17542ZM3.06065 6.15753C4.28771 6.77542 5.46065 7.33571 6.59302 7.96364C6.71255 8.06171 6.81121 8.18276 6.88316 8.31962C6.95511 8.45647 6.9989 8.60637 7.01193 8.76044C7.15811 9.99447 7.2144 11.2403 7.37804 12.4695C7.44306 12.8326 7.63977 13.1589 7.93047 13.3859C9.01309 14.1635 10.1533 14.8608 11.2499 15.6205C11.3704 15.6956 11.4749 15.7937 11.5573 15.9094C11.6397 16.025 11.6983 16.1558 11.7299 16.2943C11.7735 17.8953 11.7521 19.4985 11.7521 21.2108C11.5401 21.1112 11.3349 20.9978 11.1377 20.8713C9.03927 19.2724 6.93775 17.678 4.85978 16.0525C4.54765 15.8293 4.32142 15.5059 4.21876 15.1361C3.80029 12.3513 3.43811 9.55767 3.06371 6.76626C3.05108 6.56357 3.05006 6.36033 3.06065 6.15753ZM3.21818 5.74996C6.11433 4.66342 8.80364 3.62356 11.5213 2.66793C12.0017 2.58993 12.4945 2.66137 12.9329 2.87258C15.3923 3.75971 17.8377 4.68567 20.4711 5.66531C19.234 6.30458 18.1863 6.88102 17.1033 7.38022C16.7928 7.46901 16.4608 7.44425 16.1668 7.3104C14.9529 6.84087 13.7668 6.29367 12.545 5.84684C12.1606 5.71607 11.7438 5.71607 11.3594 5.84684C10.0861 6.32684 8.84902 6.90502 7.58531 7.41295C7.32302 7.53479 7.02568 7.55833 6.74749 7.47927C5.6256 6.97309 4.52815 6.39884 3.21818 5.74996Z" fill="#121212"/>
<path d="M15.5852 8.63695C15.4743 9.89935 15.3897 11.006 15.2671 12.1087C15.2243 12.3098 15.1067 12.4872 14.938 12.6048C14.0719 13.2061 13.1865 13.7808 12.1257 14.4855C12.1257 13.1062 12.1165 11.8887 12.1375 10.6717C12.1464 10.5859 12.1742 10.5032 12.2189 10.4295C12.2637 10.3558 12.3242 10.2929 12.3962 10.2454C13.4055 9.71564 14.4292 9.21469 15.5852 8.63695ZM8.37164 8.84465L11.729 10.4963V14.4572C10.7057 13.7791 9.77978 13.1777 8.87258 12.5498C8.74397 12.4288 8.66601 12.2635 8.6544 12.0873C8.55229 11.0649 8.47287 10.0399 8.37164 8.84465ZM8.68102 8.43229C9.73484 7.98764 10.6516 7.59055 11.5785 7.21746C11.7646 7.12915 11.9752 7.10653 12.1759 7.15331C13.1284 7.52291 14.0662 7.93135 15.1741 8.39651L11.8207 10.1101L8.68102 8.43229Z" fill="#121212"/>
</svg>
