<svg width="24" height="24" viewBox="0 0 24 24" fill="none" xmlns="http://www.w3.org/2000/svg">
<g clip-path="url(#clip0_174_74)">
<path d="M1.6669 11.9908C1.6669 10.5072 1.68129 9.02619 1.66165 7.5443C1.63713 7.12842 1.73611 6.71456 1.94613 6.35478C2.15614 5.99499 2.46784 5.70533 2.84202 5.52219C5.52697 4.0224 8.20407 2.50822 10.886 1.00233C11.222 0.797774 11.6079 0.689573 12.0013 0.689573C12.3947 0.689573 12.7806 0.797774 13.1167 1.00233L21.202 5.54618C21.5601 5.72659 21.8582 6.00694 22.0603 6.35327C22.2623 6.69961 22.3597 7.09708 22.3405 7.49759C22.3338 10.51 22.3338 13.5222 22.3405 16.5343C22.3577 16.927 22.2612 17.3164 22.0626 17.6556C21.864 17.9949 21.5717 18.2696 21.2208 18.4468C18.5392 19.9529 15.8588 21.4611 13.1795 22.9715C12.8257 23.1909 12.4176 23.3071 12.0013 23.3071C11.585 23.3071 11.1769 23.1909 10.8231 22.9715C8.17409 21.4724 5.52087 19.9808 2.86341 18.4966C2.48144 18.3113 2.16324 18.0166 1.94937 17.6499C1.73551 17.2831 1.63566 16.861 1.66253 16.4374C1.68435 14.9542 1.6669 13.4732 1.6669 11.9908ZM16.707 8.4563C15.7161 6.88146 13.142 5.46763 10.3091 6.29803C9.02813 6.67811 7.91219 7.47784 7.14059 8.56868C6.369 9.65951 5.9866 10.9781 6.05483 12.3125C6.12306 13.6469 6.63796 14.9196 7.51679 15.9261C8.39562 16.9325 9.58731 17.6142 10.9003 17.8617C13.5622 18.3417 15.9944 16.8733 16.6782 15.5345C16.1293 15.2182 15.5686 14.9167 15.0323 14.5745C14.9734 14.5199 14.9041 14.4778 14.8286 14.4506C14.753 14.4235 14.6728 14.4119 14.5927 14.4166C14.5125 14.4213 14.4341 14.4422 14.3622 14.4779C14.2903 14.5137 14.2265 14.5636 14.1744 14.6247C13.5884 15.1285 12.8463 15.4141 12.0737 15.4333C11.3012 15.4525 10.5458 15.2039 9.93554 14.7299C9.57053 14.4537 9.26461 14.1071 9.03586 13.7106C8.80712 13.3141 8.6602 12.8757 8.60379 12.4215C8.54737 11.9672 8.58261 11.5062 8.70742 11.0658C8.83223 10.6254 9.0441 10.2145 9.33046 9.85738C9.61682 9.50026 9.97186 9.20418 10.3746 8.98665C10.7774 8.76912 11.2197 8.63456 11.6754 8.59091C12.131 8.54727 12.5908 8.59543 13.0275 8.73255C13.4643 8.86967 13.8691 9.09297 14.218 9.38924C14.3555 9.50226 14.6151 9.64102 14.7242 9.58473C15.3997 9.23782 16.0481 8.83899 16.7049 8.4563H16.707ZM15.8038 12.5498C16.1145 12.8553 15.5939 13.4138 16.2838 13.5294C17.1866 13.6809 16.9217 12.9748 17.016 12.5415L17.9101 12.4909V11.5169L17.0919 11.4646C16.7673 11.1687 17.3315 10.5761 16.5822 10.4736C15.6689 10.3484 16.0058 11.057 15.8762 11.4567L14.9729 11.5139V12.4909L15.8038 12.5498ZM19.2711 11.4541L18.4289 11.5305V12.4848L19.258 12.5529C19.5635 12.8697 19.0324 13.4592 19.797 13.5369C20.6871 13.6272 20.3341 12.9447 20.4716 12.5537L21.3718 12.4804V11.5283L20.4842 11.4497C20.3158 11.0653 20.7155 10.4339 19.855 10.4679C19.0385 10.4998 19.5364 11.1098 19.2711 11.4541Z" fill="#121212"/>
</g>
<defs>
<clipPath id="clip0_174_74">
<rect width="24" height="24" fill="white"/>
</clipPath>
</defs>
</svg>
