<svg width="24" height="24" viewBox="0 0 24 24" fill="none" xmlns="http://www.w3.org/2000/svg">
<path d="M0.872726 12.1021C1.11991 11.6652 1.40137 11.2486 1.71447 10.8563C2.78313 9.70342 3.88887 8.5872 4.9872 7.46007C5.09588 7.32347 5.23161 7.21079 5.38587 7.12909C5.54013 7.04739 5.70961 6.99843 5.88368 6.98528C6.05774 6.97213 6.23265 6.99507 6.39744 7.05267C6.56222 7.11027 6.71334 7.20128 6.84131 7.32C6.97875 7.44306 7.09038 7.59221 7.1697 7.75877C7.24903 7.92533 7.29448 8.10599 7.30341 8.29026C7.31234 8.47453 7.28458 8.65873 7.22173 8.83219C7.15888 9.00564 7.0622 9.16487 6.93731 9.30065C6.03753 10.2746 5.10458 11.2172 4.12102 12.2391C5.03389 13.1882 5.92844 14.1273 6.83433 15.055C7.05101 15.2314 7.20416 15.4737 7.27049 15.7452C7.33681 16.0166 7.31267 16.3022 7.20174 16.5587C6.99132 16.9587 6.63727 17.2643 6.21076 17.414C6.00649 17.4444 5.79804 17.4297 5.60003 17.3711C5.40201 17.3124 5.21921 17.2112 5.06444 17.0745C3.77716 15.8217 2.54487 14.5117 1.31782 13.1987C1.13204 12.9364 0.982335 12.6504 0.872726 12.3482V12.1021ZM23.4934 12.3478C23.2534 12.7877 22.9769 13.2068 22.6669 13.6006C21.5856 14.7744 20.4729 15.9199 19.3505 17.0548C19.1342 17.3087 18.8261 17.4664 18.4937 17.4935C18.1613 17.5205 17.8317 17.4148 17.5772 17.1993C17.3216 16.9902 17.1483 16.6974 17.0882 16.3727C17.028 16.0481 17.0848 15.7126 17.2486 15.4259C17.3475 15.2714 17.4647 15.1294 17.5977 15.0031C18.4591 14.1011 19.3235 13.2022 20.2333 12.254C19.9012 11.8983 19.5892 11.5558 19.2703 11.2233C18.6484 10.5722 18.0048 9.94211 17.4044 9.27055C17.166 8.99718 17.044 8.64142 17.0644 8.27929C17.0849 7.91717 17.2462 7.57741 17.5139 7.33265C17.6402 7.21161 17.7902 7.11812 17.9545 7.05811C18.1188 6.9981 18.2938 6.97287 18.4683 6.98403C18.6429 6.99519 18.8132 7.04249 18.9685 7.12293C19.1239 7.20338 19.2608 7.31521 19.3706 7.45135C20.4716 8.57804 21.5791 9.69905 22.6499 10.855C22.9637 11.248 23.2457 11.6653 23.4934 12.103V12.3478ZM8.60684 19.138C8.63124 18.89 8.67723 18.6446 8.74429 18.4045C10.2745 13.8326 11.8119 9.26269 13.3567 4.69484C13.3979 4.52566 13.4733 4.36667 13.5781 4.22758C13.6828 4.08849 13.8149 3.97221 13.9661 3.88584C14.1173 3.79948 14.2845 3.74483 14.4576 3.72525C14.6306 3.70566 14.8058 3.72154 14.9725 3.77193C15.1433 3.82692 15.3012 3.916 15.4365 4.03378C15.5719 4.15156 15.6819 4.29558 15.76 4.45713C15.8381 4.61868 15.8826 4.7944 15.8908 4.97364C15.899 5.15288 15.8707 5.33193 15.8077 5.49993C15.1837 7.42429 14.5366 9.3408 13.8912 11.2577C12.9786 13.9687 12.062 16.6778 11.1412 19.385C11.0725 19.6881 10.8939 19.9551 10.6399 20.1341C10.3858 20.3132 10.0744 20.3918 9.76582 20.3546C9.46305 20.3139 9.18322 20.1712 8.9725 19.95C8.76179 19.7288 8.63281 19.4424 8.60684 19.138Z" fill="#121212"/>
</svg>
