<svg width="24" height="24" viewBox="0 0 24 24" fill="none" xmlns="http://www.w3.org/2000/svg">
<g clip-path="url(#clip0_174_102)">
<path d="M13.1441 20.4153C13.2347 20.4702 13.3395 20.4969 13.4452 20.4921V20.493C13.5374 20.4934 13.6291 20.4804 13.7175 20.4546C13.7989 20.4305 13.8763 20.3945 13.9471 20.3476V20.0073C13.873 19.978 13.7961 19.9568 13.7175 19.944C13.6347 19.9308 13.5509 19.9242 13.4671 19.9244C13.355 19.9183 13.2435 19.945 13.1463 20.0012C13.1111 20.023 13.0821 20.0533 13.0618 20.0895C13.0416 20.1256 13.0309 20.1662 13.0306 20.2076C13.0304 20.249 13.0407 20.2898 13.0606 20.3261C13.0804 20.3624 13.1092 20.3931 13.1441 20.4153Z" fill="#121212"/>
<path d="M19.5822 16.4291C19.6589 16.4621 19.7418 16.4786 19.8253 16.4775L19.824 16.478C19.9076 16.4791 19.9906 16.4626 20.0674 16.4295C20.1443 16.3964 20.2133 16.3475 20.27 16.286C20.3879 16.1582 20.4534 15.9907 20.4534 15.8169C20.4534 15.643 20.3879 15.4755 20.27 15.3478C20.2128 15.287 20.1439 15.2386 20.0673 15.2055C19.9908 15.1724 19.9083 15.1553 19.8249 15.1553C19.7415 15.1553 19.659 15.1724 19.5824 15.2055C19.5059 15.2386 19.4369 15.287 19.3798 15.3478C19.2619 15.4755 19.1964 15.643 19.1964 15.8169C19.1964 15.9907 19.2619 16.1582 19.3798 16.286C19.4365 16.3473 19.5054 16.3961 19.5822 16.4291Z" fill="#121212"/>
<path fill-rule="evenodd" clip-rule="evenodd" d="M8.61731 20.8826C10.3979 21.7166 12.3354 22.1628 14.3014 22.1917C16.9903 22.1917 19.0499 21.2082 20.4231 19.2676C21.0881 18.2946 21.5672 17.2069 21.8361 16.0595C22.1471 14.7577 22.2977 13.4226 22.2847 12.0842V11.4763C22.2895 7.86071 22.2936 4.73914 20.6391 3.08117C19.7839 2.22503 18.535 1.80874 16.8214 1.80874C15.205 1.84415 13.6026 2.11598 12.065 2.61557C10.3401 3.14787 8.68587 3.88691 7.13847 4.81659C5.67055 5.67174 4.36357 6.77714 3.27665 8.08277C2.31417 9.19915 1.76302 10.6115 1.71491 12.0847C1.7182 13.0044 1.89589 13.9152 2.23854 14.7687C2.58908 15.6356 3.06981 16.4438 3.66414 17.1657C4.94534 18.6942 6.54772 19.9216 8.35723 20.7604V18.6087H8.95767V18.7811C9.03761 18.7123 9.12924 18.6583 9.22822 18.6218C9.33183 18.5849 9.44114 18.5666 9.55112 18.5677C9.68707 18.5655 9.82162 18.5954 9.94385 18.655C10.0599 18.7132 10.1597 18.7994 10.234 18.9059C10.3222 18.7973 10.4344 18.7106 10.5617 18.6528C10.6948 18.5938 10.839 18.564 10.9846 18.5655C11.1005 18.562 11.2158 18.5826 11.3233 18.6262C11.4307 18.6698 11.5279 18.7353 11.6086 18.8186C11.6904 18.9054 11.7541 19.0076 11.7961 19.1192C11.8381 19.2308 11.8576 19.3496 11.8534 19.4688V20.8826H11.2551V19.5561C11.2608 19.4308 11.2196 19.3079 11.1395 19.2114C11.1003 19.1679 11.0521 19.1336 10.9981 19.111C10.9442 19.0884 10.8859 19.0779 10.8275 19.0804C10.7418 19.0795 10.6573 19.0997 10.5814 19.1394C10.5059 19.1798 10.4408 19.2371 10.3911 19.3069L10.399 19.378V19.3855C10.4022 19.4131 10.4038 19.441 10.4038 19.4688V20.8826H9.80552V19.5561C9.81122 19.4308 9.76998 19.3079 9.68989 19.2114C9.65073 19.1679 9.60246 19.1336 9.54853 19.111C9.49459 19.0884 9.43632 19.0779 9.37789 19.0804C9.2949 19.0789 9.21271 19.0969 9.13789 19.1328C9.06629 19.1694 9.00381 19.2216 8.95505 19.2855V20.8826H8.61731ZM16.3776 20.6108L16.6743 20.2137C16.792 20.2926 16.9185 20.3575 17.0513 20.407C17.1662 20.4482 17.2872 20.4696 17.4092 20.4703C17.5198 20.4753 17.63 20.4528 17.7299 20.4048C17.7644 20.3901 17.7939 20.3659 17.8151 20.335C17.8363 20.304 17.8482 20.2677 17.8495 20.2303C17.8502 20.2033 17.8444 20.1765 17.8327 20.1522C17.8209 20.1279 17.8035 20.1068 17.7818 20.0906C17.7168 20.0489 17.6427 20.0236 17.5658 20.0169L17.1295 19.9514C16.9405 19.9317 16.7619 19.8557 16.6167 19.7332C16.5581 19.6763 16.5123 19.6076 16.4822 19.5316C16.4521 19.4556 16.4385 19.3741 16.4422 19.2925C16.4395 19.1909 16.4615 19.0902 16.5064 18.999C16.5512 18.9078 16.6175 18.8288 16.6996 18.7689C16.9013 18.6292 17.1436 18.5602 17.3887 18.5725C17.5529 18.5724 17.7163 18.5966 17.8735 18.6445C18.0325 18.6935 18.1838 18.7648 18.3229 18.8562L18.0349 19.2402C17.9218 19.1731 17.8018 19.1182 17.6771 19.0765C17.5657 19.0405 17.4494 19.0221 17.3324 19.022C17.2418 19.0178 17.1519 19.039 17.0727 19.0831C17.0433 19.0986 17.0186 19.1218 17.0013 19.1502C16.984 19.1786 16.9747 19.2112 16.9745 19.2445C16.9735 19.2723 16.9795 19.3 16.9921 19.3248C17.0047 19.3496 17.0234 19.3708 17.0465 19.3863C17.1195 19.4277 17.2007 19.4523 17.2844 19.4583L17.7207 19.5238C17.91 19.5419 18.0891 19.6181 18.2335 19.742C18.2927 19.7969 18.3396 19.8638 18.3709 19.9384C18.4022 20.0129 18.4172 20.0932 18.415 20.174C18.4156 20.2785 18.3893 20.3815 18.3386 20.4729C18.2868 20.5657 18.2162 20.6467 18.1313 20.7107C18.0368 20.7814 17.9304 20.8346 17.8172 20.8678C17.6884 20.9066 17.5545 20.9258 17.4201 20.925C17.2237 20.9262 17.0282 20.899 16.8397 20.8442C16.6722 20.7966 16.5153 20.7174 16.3776 20.6108ZM12.7073 19.7158C12.9105 19.5833 13.1507 19.519 13.3929 19.5325L13.3942 19.5334C13.5823 19.5338 13.7692 19.5632 13.9484 19.6207V19.4592C13.9521 19.4037 13.943 19.3481 13.9218 19.2966C13.9006 19.2452 13.8679 19.1993 13.8262 19.1625C13.722 19.0888 13.5956 19.0534 13.4684 19.0621C13.3628 19.0635 13.2579 19.0789 13.1564 19.1079C13.0257 19.1455 12.898 19.1929 12.7745 19.2498L12.5564 18.809C12.7225 18.7316 12.8956 18.6703 13.0735 18.6258C13.2355 18.5858 13.4018 18.5655 13.5687 18.5651C13.8251 18.5493 14.0785 18.6268 14.2822 18.7833C14.3682 18.8616 14.4355 18.9582 14.4794 19.0659C14.5233 19.1737 14.5425 19.2898 14.5357 19.406V20.8809H13.9466V20.7238C13.8539 20.7888 13.7516 20.8387 13.6433 20.8717C13.5278 20.9051 13.408 20.9215 13.2877 20.9202C13.0716 20.9293 12.8594 20.8604 12.6899 20.726C12.6154 20.6652 12.5559 20.5882 12.5158 20.5008C12.4757 20.4134 12.4561 20.3181 12.4586 20.222C12.4551 20.1236 12.476 20.0259 12.5194 19.9376C12.5628 19.8493 12.6273 19.7731 12.7073 19.7158ZM15.2474 20.8813V18.6079L15.8452 18.6087V20.8813H15.2474ZM15.3263 17.7329C15.3878 17.6829 15.4648 17.6557 15.5441 17.6562C15.5889 17.6557 15.6333 17.6644 15.6747 17.6816C15.716 17.6989 15.7534 17.7244 15.7846 17.7565C15.8407 17.8126 15.8755 17.8864 15.8832 17.9654C15.891 18.0443 15.871 18.1235 15.8269 18.1894C15.7827 18.2553 15.717 18.3038 15.6411 18.3267C15.5651 18.3496 15.4836 18.3454 15.4104 18.3148C15.3372 18.2842 15.2768 18.2292 15.2397 18.1591C15.2025 18.0891 15.1908 18.0083 15.2066 17.9305C15.2224 17.8528 15.2647 17.7829 15.3263 17.7329ZM19.3479 14.7295C19.499 14.6679 19.6608 14.6368 19.824 14.6378C19.987 14.6368 20.1487 14.668 20.2996 14.7295C20.4433 14.7875 20.5744 14.8727 20.6858 14.9804C20.7952 15.0874 20.8827 15.2147 20.9433 15.3552C21.0354 15.5732 21.0601 15.8138 21.0142 16.046C20.9684 16.2781 20.854 16.4912 20.6858 16.6578C20.5739 16.7642 20.4429 16.8486 20.2996 16.9065C19.9942 17.029 19.6533 17.029 19.3479 16.9065C19.2047 16.8486 19.0737 16.7642 18.9617 16.6578C18.7917 16.4924 18.676 16.2793 18.6301 16.0466C18.5841 15.8139 18.61 15.5728 18.7043 15.3552C18.7649 15.2147 18.8523 15.0874 18.9617 14.9804C19.0732 14.8727 19.2043 14.7875 19.3479 14.7295ZM12.4451 16.0909V14.6815H13.0407V16.0036C13.038 16.0676 13.0482 16.1315 13.0707 16.1915C13.0932 16.2515 13.1275 16.3063 13.1716 16.3527C13.2167 16.3969 13.2704 16.4313 13.3293 16.4538C13.3882 16.4763 13.4512 16.4865 13.5142 16.4836C13.6084 16.4853 13.7018 16.4651 13.7869 16.4247C13.866 16.3861 13.9343 16.3284 13.9855 16.2567V14.6815H14.5833V16.9549H13.9855V16.7716C13.8984 16.8441 13.7995 16.9009 13.6931 16.9396C13.5811 16.9796 13.4629 16.9995 13.344 16.9986C13.2246 17.0023 13.1057 16.9816 12.9947 16.9377C12.8836 16.8938 12.7827 16.8277 12.6982 16.7433C12.6142 16.6572 12.5484 16.5551 12.505 16.443C12.4615 16.3309 12.4411 16.2111 12.4451 16.0909ZM16.4723 15.1828V14.6815H16.9392V14.0998L17.537 13.9645V14.6815H18.1828V15.1855H17.537V16.1935C17.5329 16.234 17.537 16.275 17.549 16.314C17.561 16.3529 17.5806 16.3891 17.6068 16.4204C17.6776 16.4711 17.7645 16.4944 17.8512 16.4858C17.9038 16.4859 17.9562 16.4823 18.0083 16.4749C18.0633 16.4654 18.1174 16.4508 18.1697 16.4313V16.92C18.0942 16.9426 18.017 16.9593 17.9389 16.9698C17.8624 16.9818 17.7851 16.9884 17.7076 16.9894C17.5016 17.0041 17.2974 16.9429 17.1334 16.8175C17.0663 16.7525 17.0142 16.6738 16.9807 16.5866C16.9472 16.4995 16.933 16.4062 16.9392 16.313V15.1828H16.4723ZM15.3076 16.9549V14.6815H15.9055V16.9549H15.3076ZM11.0967 16.9536V14.712L10.0368 16.7354L8.9808 14.7063V16.9536H8.39607V13.8991H9.20771L10.0455 15.5398L10.8838 13.8991H11.6945V16.9536H11.0967ZM15.3865 13.805C15.4483 13.7549 15.5257 13.7278 15.6052 13.7284C15.6499 13.7279 15.6943 13.737 15.7355 13.7541C15.7768 13.7713 15.8141 13.7967 15.8452 13.8288C15.9016 13.885 15.9366 13.9591 15.9444 14.0383C15.9522 14.1175 15.9322 14.1969 15.8879 14.263C15.8436 14.3291 15.7777 14.3778 15.7015 14.4007C15.6253 14.4236 15.5435 14.4194 15.4701 14.3887C15.3967 14.358 15.3362 14.3027 15.299 14.2324C15.2618 14.162 15.2502 14.081 15.2662 14.003C15.2821 13.925 15.3247 13.855 15.3865 13.805ZM9.86661 7.28509C9.86661 6.9236 9.57356 6.63055 9.21207 6.63055C8.85057 6.63055 8.55752 6.9236 8.55752 7.28509V8.3952H7.44741C7.08592 8.3952 6.79287 8.68825 6.79287 9.04975C6.79287 9.41125 7.08592 9.70429 7.44741 9.70429H8.55752V10.8144C8.55752 11.1759 8.85057 11.4689 9.21207 11.4689C9.57356 11.4689 9.86661 11.1759 9.86661 10.8144V9.70429H10.9767C11.3382 9.70429 11.6313 9.41125 11.6313 9.04975C11.6313 8.68825 11.3382 8.3952 10.9767 8.3952H9.86661V7.28509Z" fill="#121212"/>
</g>
<defs>
<clipPath id="clip0_174_102">
<rect width="24" height="24" fill="white"/>
</clipPath>
</defs>
</svg>
