<svg width="24" height="24" viewBox="0 0 24 24" fill="none" xmlns="http://www.w3.org/2000/svg">
<g clip-path="url(#clip0_174_70)">
<path d="M2.68669 21.3229V3.11171H20.9049V21.3229H2.68669ZM13.5356 18.2204C14.1967 19.4627 15.2374 19.9008 16.4592 19.999C17.8909 20.1142 19.114 19.4099 19.4374 18.3264C19.8428 16.9689 19.2982 15.8247 17.8708 15.0842C17.3668 14.8224 16.8353 14.6143 16.3257 14.3638C15.816 14.1133 15.5651 13.6285 15.9329 13.2065C16.1358 12.9735 16.7184 12.9953 17.1142 13.0351C17.3289 13.0564 17.5161 13.3562 17.7356 13.5473L18.9849 12.7527C18.2553 11.5222 17.2988 11.1295 15.8797 11.4096C15.4194 11.4886 14.9952 11.7091 14.666 12.0404C14.3369 12.3717 14.1191 12.7973 14.0431 13.258C13.8716 14.4903 14.3607 15.3783 15.5948 16.0159C16.0455 16.2489 16.5316 16.4134 16.9846 16.6425C17.4375 16.8716 18.0467 17.1949 17.7203 17.7535C17.5627 17.948 17.3612 18.1024 17.1323 18.2039C16.9035 18.3054 16.6538 18.3511 16.4038 18.3373C15.8422 18.2561 15.3338 17.808 14.7456 17.4868L13.5356 18.2204ZM7.47011 18.3722C7.71523 18.9193 8.13066 19.3724 8.65441 19.664C9.17816 19.9556 9.78216 20.07 10.3763 19.9903C11.5693 19.8406 12.4966 19.2048 12.5415 18.1859C12.6393 15.9604 12.5716 13.7245 12.5716 11.4698H10.8846C10.865 11.7727 10.834 12.0345 10.8332 12.2963C10.8284 13.9711 10.8593 15.6467 10.8061 17.3197C10.7948 17.6688 10.5364 18.23 10.2908 18.2919C9.95127 18.3792 9.5053 18.1025 9.1261 17.9398C8.98516 17.8796 8.89483 17.7007 8.78137 17.5754L7.47011 18.3722Z" fill="#121212"/>
</g>
<defs>
<clipPath id="clip0_174_70">
<rect width="24" height="24" fill="white"/>
</clipPath>
</defs>
</svg>
