<svg width="24" height="24" viewBox="0 0 24 24" fill="none" xmlns="http://www.w3.org/2000/svg">
<path fill-rule="evenodd" clip-rule="evenodd" d="M20.0684 7.58836V7.60582C20.0727 7.61018 20.0727 7.61891 20.0727 7.62327V11.1098C20.0727 11.1316 20.0684 11.1535 20.064 11.1753C20.0599 11.1973 20.0509 11.2182 20.0378 11.2364C20.0291 11.2582 20.016 11.2756 19.9985 11.2887C19.9833 11.3045 19.9656 11.3178 19.9462 11.328L17.0313 13.008V16.3331C17.0313 16.4204 16.9833 16.5076 16.9047 16.5513L10.8218 20.0509C10.8087 20.0596 10.7956 20.064 10.7782 20.0727C10.7738 20.0727 10.7695 20.0771 10.7607 20.0771C10.752 20.0815 10.7433 20.0815 10.7302 20.0858H10.6647C10.656 20.0815 10.6429 20.0815 10.6342 20.0771C10.6255 20.0771 10.6211 20.0727 10.6124 20.0684C10.5993 20.064 10.5862 20.0596 10.5731 20.0509L4.49018 16.5513C4.47273 16.5425 4.45527 16.5251 4.43782 16.512C4.42201 16.4968 4.40875 16.4791 4.39855 16.4596C4.3862 16.441 4.37733 16.4203 4.37236 16.3985C4.36732 16.3771 4.36439 16.3551 4.36364 16.3331V5.91709C4.36364 5.89527 4.368 5.87345 4.37236 5.85163C4.37236 5.84291 4.37673 5.83854 4.38109 5.82982C4.38545 5.81673 4.38982 5.80364 4.39855 5.79054C4.40291 5.78182 4.40727 5.77745 4.416 5.76873C4.42036 5.76 4.42909 5.74691 4.43782 5.73818C4.44655 5.73382 4.45527 5.72509 4.464 5.72073C4.47273 5.712 4.48145 5.70327 4.49018 5.69891L7.53164 3.94909C7.54983 3.93598 7.57069 3.92704 7.59273 3.92291C7.61454 3.91854 7.63636 3.91418 7.65818 3.91418C7.68 3.91418 7.70182 3.91854 7.72364 3.92291C7.74545 3.92727 7.76291 3.936 7.78473 3.94909L10.8262 5.69891C10.8349 5.70327 10.8436 5.712 10.8524 5.72073C10.8611 5.72509 10.8698 5.73382 10.8785 5.73818C10.8873 5.74691 10.8916 5.76 10.9004 5.76873C10.9047 5.77745 10.9135 5.78182 10.9178 5.79054C10.9265 5.80364 10.9265 5.81673 10.9353 5.82982C10.9353 5.83854 10.9396 5.84291 10.944 5.85163C10.944 5.856 10.944 5.86473 10.9484 5.86909V5.88654C10.9484 5.89091 10.9484 5.89527 10.9527 5.89964V12.4233L13.4836 10.9658V7.64073C13.4836 7.61454 13.488 7.59273 13.4924 7.57091C13.4967 7.56654 13.5011 7.55782 13.5011 7.55345C13.5098 7.536 13.5142 7.52291 13.5185 7.51418C13.5229 7.50545 13.5316 7.49673 13.536 7.488C13.5447 7.47927 13.5491 7.47054 13.5578 7.46182C13.5665 7.45309 13.5753 7.44873 13.584 7.44C13.5927 7.43563 13.6015 7.42691 13.6102 7.41818L16.6516 5.66836C16.6735 5.65963 16.6909 5.65091 16.7127 5.64218C16.7345 5.63782 16.7564 5.63345 16.7782 5.63345C16.8 5.63345 16.8218 5.63782 16.8436 5.64218C16.8655 5.65091 16.8873 5.65963 16.9047 5.66836L19.9462 7.41818C19.9549 7.42691 19.9636 7.43563 19.9724 7.44C19.9811 7.44873 19.9898 7.45309 19.9985 7.46182C20.0073 7.47054 20.016 7.47927 20.0204 7.488C20.0291 7.49673 20.0335 7.50545 20.0378 7.51418C20.0465 7.52291 20.0509 7.536 20.0553 7.55345C20.0596 7.55782 20.064 7.56654 20.064 7.57091C20.064 7.57964 20.0684 7.584 20.0684 7.58836ZM19.5665 10.9658V8.07709L18.5018 8.688L17.0313 9.53454V12.4233L19.5665 10.9658ZM16.5251 16.1847V13.296L15.0807 14.1207L10.9527 16.4771V19.3964L16.5251 16.1847ZM4.86982 16.1847L10.4422 19.3964V16.4815L7.53164 14.832C7.51855 14.8233 7.51418 14.8145 7.50109 14.8102C7.49673 14.8015 7.488 14.7971 7.47927 14.7927V14.7884C7.47054 14.784 7.46618 14.7709 7.45745 14.7622C7.45309 14.7535 7.44436 14.7491 7.44 14.7404V14.736C7.43572 14.7322 7.43233 14.7275 7.43006 14.7222C7.4278 14.7169 7.42673 14.7112 7.42691 14.7055C7.42255 14.6967 7.41382 14.688 7.41382 14.6793C7.40945 14.6662 7.40945 14.6531 7.40945 14.64C7.40509 14.6313 7.40509 14.6225 7.40509 14.6138V7.81527L5.93455 6.96873L4.86982 6.35782V16.1847ZM5.12291 5.91709L7.65818 7.37454L10.1891 5.91709L7.65818 4.45964L5.12291 5.91709ZM8.976 13.5622L10.4465 12.7156V6.35782L9.38182 6.96873L7.91127 7.81527V14.1731L8.976 13.5622ZM14.2473 7.64073L16.7782 9.09818L19.3135 7.64073L16.7782 6.17891L14.2473 7.64073ZM16.5251 9.53454L15.0545 8.688L13.9898 8.07709V10.9658L15.4604 11.808L16.5251 12.4233V9.53454ZM14.4131 13.92L16.2676 12.8596L13.7367 11.4022L10.8262 13.0822L8.16873 14.6095L10.6953 16.0407L14.4131 13.92Z" fill="#121212"/>
</svg>
