<svg width="24" height="24" viewBox="0 0 24 24" fill="none" xmlns="http://www.w3.org/2000/svg">
<g clip-path="url(#clip0_174_72)">
<path d="M12.6598 23.2852C12.2553 23.2556 11.8503 23.2311 11.4463 23.1953C9.74761 23.0632 8.0778 22.6809 6.4909 22.0608C6.4503 22.0394 6.41082 22.016 6.37265 21.9905C6.8269 22.0778 7.22661 22.1769 7.63156 22.2332C8.5296 22.3588 9.4285 22.4801 10.33 22.5735C11.56 22.6963 12.7991 22.6963 14.0291 22.5735C15.8949 22.4703 17.7166 21.9673 19.371 21.0986C19.7255 20.8738 20.0678 20.6304 20.3965 20.3695C20.4471 20.3328 20.4942 20.2905 20.5676 20.2307C20.5443 20.509 20.4614 20.779 20.3244 21.0224C20.1874 21.2657 19.9996 21.4767 19.7738 21.641C19.0657 22.1738 18.254 22.5525 17.3908 22.7529C16.2743 23.0615 15.1236 23.2296 13.9654 23.2534C13.8559 23.256 13.7472 23.2761 13.6372 23.2883L12.6598 23.2852Z" fill="#121212"/>
<path d="M7.31478 18.6013C6.83439 18.5427 6.34704 18.6112 5.9014 18.7999C5.83504 18.8309 5.77153 18.8677 5.71158 18.9098C5.36903 19.1441 5.35027 19.457 5.7142 19.6586C6.07077 19.8612 6.45214 20.0167 6.84874 20.1212C8.48638 20.4851 10.1638 20.6384 11.8403 20.5772C13.2587 20.5908 14.6737 20.4379 16.0564 20.1216C16.5467 19.996 17.022 19.8181 17.4742 19.591C17.9939 19.3335 18.3583 18.9404 18.1357 18.2513C18.4752 18.446 18.8199 18.5935 18.9177 18.9731C18.9592 19.1772 18.9389 19.3891 18.8594 19.5816C18.7799 19.7742 18.6448 19.9386 18.4713 20.054C17.9142 20.4927 17.2668 20.8026 16.5757 20.9616C15.5381 21.245 14.4761 21.43 13.4038 21.514C12.0633 21.6404 10.7154 21.6675 9.37092 21.5952C7.91706 21.5571 6.47576 21.3149 5.08932 20.8756C4.55352 20.7265 4.0686 20.434 3.68685 20.0295C3.59257 19.9374 3.5208 19.8247 3.47714 19.7003C3.43347 19.5759 3.41908 19.4431 3.43508 19.3123C3.45108 19.1814 3.49704 19.056 3.56939 18.9458C3.64174 18.8356 3.73852 18.7435 3.85223 18.6768C4.32055 18.351 4.87084 18.1631 5.4406 18.1344C5.7046 18.1104 5.97296 18.1344 6.23914 18.13C6.63335 18.1882 7.00478 18.3509 7.31478 18.6013ZM13.5068 0.714764C13.8367 1.19779 14.0265 1.76268 14.0553 2.34692C14.084 2.93116 13.9505 3.51196 13.6695 4.02502C13.2681 4.71536 12.7791 5.35089 12.2147 5.91578C11.6439 6.54327 11.0736 7.17425 10.5478 7.83884C10.3516 8.07256 10.2306 8.36003 10.2005 8.66366C10.1703 8.96729 10.2325 9.27294 10.3789 9.54065C10.8314 10.4727 11.2704 11.4109 11.7063 12.3281C11.5052 12.168 11.2656 11.9852 11.0348 11.7919C10.3185 11.2163 9.68914 10.5402 9.16627 9.78458C8.88028 9.37219 8.67669 8.90841 8.5667 8.41876C8.50624 8.0833 8.5251 7.73834 8.62178 7.41147C8.71846 7.0846 8.89028 6.78489 9.1235 6.53629C9.76666 5.81153 10.479 5.15124 11.2503 4.5648C11.9813 4.00995 12.626 3.34983 13.1634 2.60596C13.3376 2.3584 13.4583 2.07718 13.5177 1.78031C13.577 1.48343 13.5738 1.17743 13.5081 0.881891C13.5035 0.826293 13.503 0.770427 13.5068 0.714764Z" fill="#121212"/>
<path d="M9.32029 11.9996C8.85687 12.1676 8.40131 12.3251 7.95273 12.5005C7.81715 12.5592 7.69191 12.6394 7.58182 12.7379C7.4112 12.8823 7.42822 12.9936 7.64335 13.0433C7.96413 13.1262 8.29251 13.1762 8.62342 13.1926C9.85833 13.21 11.0945 13.2257 12.329 13.1926C13.1542 13.1695 13.978 13.0669 14.8015 12.9849C15.305 12.9347 15.8051 12.8566 16.3663 12.7833C15.8863 13.1485 15.4599 13.5181 14.9873 13.8113C14.7317 13.9233 14.4576 13.9868 14.1788 13.9985C12.5818 14.2638 10.9653 14.3934 9.34647 14.386C8.25955 14.4158 7.17354 14.2998 6.11738 14.0413C5.84905 13.9646 5.59157 13.854 5.35113 13.7123C5.25904 13.6667 5.18105 13.597 5.12549 13.5106C5.06993 13.4242 5.03888 13.3243 5.03565 13.2216C5.03242 13.1189 5.05715 13.0173 5.10718 12.9276C5.1572 12.8378 5.23066 12.7634 5.31971 12.7121C5.74121 12.4406 6.2185 12.2676 6.71607 12.206C7.57471 12.0476 8.44743 11.9784 9.32029 11.9996Z" fill="#121212"/>
<path d="M16.9466 4.59273C16.4339 4.96102 15.9029 5.30705 15.4137 5.70458C14.9245 6.10211 14.4711 6.53367 14.0265 6.97309C13.8055 7.17949 13.6624 7.45578 13.6214 7.75537C13.5804 8.05497 13.6439 8.35954 13.8013 8.61775C14.0308 9.08596 14.2783 9.5472 14.4799 10.0276C14.6182 10.4036 14.6325 10.814 14.5208 11.1988C14.4091 11.5835 14.1771 11.9224 13.8589 12.1658C13.4712 12.4995 13.0062 12.7309 12.5062 12.8391C12.6681 12.6393 12.8361 12.4534 12.9801 12.25C13.1736 11.9999 13.2809 11.6939 13.286 11.3777C13.2911 11.0615 13.1938 10.7521 13.0084 10.4959C12.7501 10.0839 12.4765 9.68029 12.2387 9.25702C11.7068 8.31011 12.0642 7.1136 12.6436 6.43287C13.3038 5.69863 14.1685 5.17873 15.1266 4.94007C15.717 4.76553 16.327 4.65993 16.9283 4.52291L16.9466 4.59273ZM8.38692 14.5025C8.29965 14.6055 8.25601 14.6522 8.21892 14.705C8.19264 14.734 8.17292 14.7684 8.16111 14.8057C8.14929 14.843 8.14567 14.8824 8.15047 14.9213C8.15527 14.9601 8.1684 14.9975 8.18895 15.0308C8.20949 15.0641 8.23698 15.0926 8.26954 15.1143C8.54497 15.3155 8.87078 15.4363 9.21078 15.4634C10.2565 15.6236 11.3204 15.6252 12.3666 15.4682C12.9618 15.3809 13.5487 15.2356 14.1404 15.1217C14.2102 15.103 14.2844 15.1079 14.3511 15.1357C14.7548 15.3779 15.1523 15.6301 15.5983 15.9085C15.2147 16.0394 14.8804 16.1651 14.5375 16.2633C13.1568 16.6528 11.7224 16.817 10.2895 16.7494C9.26974 16.7544 8.25879 16.5608 7.31303 16.1795C7.199 16.1283 7.09027 16.066 6.98838 15.9936C6.9122 15.9575 6.8466 15.9025 6.79787 15.8337C6.74915 15.7649 6.71895 15.6848 6.71018 15.601C6.70142 15.5172 6.71437 15.4325 6.74781 15.3551C6.78125 15.2778 6.83404 15.2103 6.9011 15.1593C7.1843 14.8768 7.53936 14.6771 7.92787 14.582C8.07938 14.5474 8.23261 14.5209 8.38692 14.5025ZM9.00656 16.8842C8.82852 17.2394 8.87085 17.4048 9.23827 17.4855C9.67613 17.5811 10.1224 17.633 10.5705 17.6404C11.6561 17.669 12.7378 17.4984 13.762 17.1373C13.7888 17.1305 13.8166 17.1291 13.8439 17.1332C13.8712 17.1373 13.8974 17.1469 13.9209 17.1613C14.3524 17.4428 14.7805 17.7286 15.2557 18.0467C14.9127 18.2003 14.6108 18.3657 14.2892 18.4735C13.4105 18.7774 12.4904 18.9446 11.561 18.9692C10.8537 18.9814 10.1433 18.9731 9.43812 18.9207C8.8925 18.8915 8.36068 18.7386 7.88292 18.4735C7.77799 18.4282 7.6872 18.3554 7.62009 18.2629C7.55298 18.1704 7.51203 18.0615 7.50154 17.9477C7.49105 17.8339 7.5114 17.7194 7.56047 17.6162C7.60954 17.513 7.6855 17.4249 7.78038 17.3612C8.1128 17.0508 8.55179 16.88 9.00656 16.8842ZM16.7354 12.4447C17.1851 12.093 17.7532 11.9285 18.3212 11.9856C18.6729 12.0066 19.0054 12.1528 19.2588 12.3976C19.5121 12.6424 19.6696 12.9697 19.7027 13.3204C19.7874 13.7664 19.7507 14.227 19.5966 14.654C19.4425 15.081 19.1765 15.4588 18.8265 15.7479C18.2693 16.212 17.6121 16.5406 16.9065 16.7079C16.6984 16.7673 16.4845 16.8036 16.2685 16.8161C16.454 16.663 16.6407 16.5107 16.824 16.3553C17.3339 15.9481 17.7653 15.4512 18.0969 14.8892C18.2587 14.5924 18.3809 14.2756 18.4604 13.9471C18.5206 13.6536 18.4657 13.3482 18.3071 13.0941C18.1485 12.8399 17.8982 12.6565 17.6082 12.5817C17.321 12.5146 17.0293 12.4688 16.7354 12.4447Z" fill="#121212"/>
</g>
<defs>
<clipPath id="clip0_174_72">
<rect width="24" height="24" fill="white"/>
</clipPath>
</defs>
</svg>
