<svg width="24" height="24" viewBox="0 0 24 24" fill="none" xmlns="http://www.w3.org/2000/svg">
<path d="M19.9183 15.4324C19.6564 15.5363 19.3946 15.6454 19.128 15.7427C18.2153 16.0861 17.2489 16.2649 16.2737 16.2707C15.7165 16.2707 15.1597 16.2135 14.6025 16.1808C14.5665 16.176 14.531 16.1687 14.496 16.159C14.5832 15.7876 14.7273 15.432 14.9232 15.1047C15.1671 14.6588 15.4281 14.2211 15.6458 13.7625C16.0177 12.9576 16.1121 12.0522 15.9142 11.1879C15.8513 10.8772 15.7571 10.5727 15.6698 10.2384C15.8902 10.4544 16.1009 10.6529 16.303 10.8607C17.5573 12.2041 18.7061 13.6424 19.7389 15.1628C19.7965 15.2439 19.858 15.3225 19.9178 15.4023L19.9183 15.4324Z" fill="#121212"/>
<path d="M15.5097 9.99578C15.23 9.7776 14.9777 9.55636 14.7037 9.36742C14.5208 9.24183 14.3673 9.07807 14.2538 8.88742C13.9327 8.32154 13.4674 7.85085 12.9052 7.52324C12.3431 7.19564 11.7042 7.02283 11.0535 7.0224C10.2534 7.01279 9.47086 7.25724 8.81848 7.72058C8.16609 8.18391 7.67749 8.84225 7.42298 9.60087C7.39828 9.68557 7.35336 9.763 7.29207 9.82647C6.13983 10.8682 5.33617 12.2394 4.99026 13.7537C4.98205 13.7942 4.96524 13.8325 4.94095 13.8659C4.57933 12.8073 4.47357 11.6781 4.63231 10.5707C4.79106 9.46338 5.2098 8.40937 5.85426 7.49498C7.61804 4.96407 10.097 3.88887 13.1485 4.33745C14.4619 4.53234 15.6951 5.0891 16.7099 5.94537C17.7247 6.80163 18.481 7.92356 18.8941 9.18545C18.7975 9.05463 18.7123 8.9158 18.6393 8.77047C18.505 8.41566 18.3179 8.08318 18.0842 7.78429C18.0028 7.66013 17.8948 7.55566 17.7679 7.4785C17.6411 7.40133 17.4986 7.3534 17.3509 7.33819C17.2032 7.32297 17.054 7.34086 16.9141 7.39056C16.7742 7.44025 16.6471 7.52049 16.5421 7.62545C16.4321 7.727 16.3334 7.84009 16.2476 7.96276C15.8808 8.53017 15.6415 9.17032 15.5459 9.83913C15.5359 9.88887 15.5241 9.93731 15.5097 9.99578ZM10.5238 14.6335C11.2228 15.0994 11.9716 15.4861 12.7562 15.7863C12.8147 15.6192 12.8666 15.4547 12.9308 15.295C12.9589 15.2214 13.0003 15.1537 13.0529 15.0951C13.6137 14.4991 14.1919 13.9169 14.7373 13.3082C15.1961 12.7917 15.549 12.19 15.7759 11.5375C15.8068 11.4502 15.8304 11.3577 15.8575 11.2673L15.9011 11.2647C15.9172 11.599 15.9543 11.9332 15.9447 12.2684C15.8828 13.093 15.6153 13.889 15.1667 14.5837C14.9556 14.9216 14.764 15.2712 14.5929 15.631C14.4048 16.044 14.3529 16.5061 14.4449 16.9505C14.5368 17.3949 14.7677 17.7985 15.1043 18.103C15.1422 18.1347 15.1837 18.1619 15.2278 18.1841L15.1968 18.2239C14.9498 18.2239 14.7007 18.2422 14.455 18.2195C14.0859 18.1882 13.7266 18.0844 13.3977 17.914C13.1592 17.8058 12.9587 17.6286 12.8221 17.4053C12.6854 17.182 12.6188 16.9228 12.631 16.6612C12.6346 16.613 12.6238 16.5649 12.6 16.5228C12.5763 16.4807 12.5406 16.4466 12.4975 16.4247C11.7551 15.9279 11.09 15.3244 10.5238 14.6335Z" fill="#121212"/>
<path d="M14.2285 8.97207C13.1843 8.38894 11.9897 8.13071 10.7979 8.23045C9.60598 8.33019 8.47099 8.78335 7.53818 9.53193C7.75363 8.91988 8.12716 8.37573 8.62086 7.95468C9.11456 7.53364 9.71085 7.25069 10.3492 7.13454C11.1066 7.00042 11.8869 7.10525 12.582 7.43451C13.2771 7.76376 13.8525 8.30111 14.2285 8.97207Z" fill="#121212"/>
<path d="M12.4769 8.90051L12.9007 10.2013C12.95 10.3527 13.0006 10.5041 13.0473 10.6564C13.0974 10.8325 13.1767 10.9989 13.282 11.1487C13.4209 11.3467 13.4811 11.5893 13.4509 11.8292C13.4207 12.0692 13.3024 12.2893 13.1188 12.4468C12.9398 12.6013 12.7117 12.6871 12.4752 12.6891C12.2388 12.6911 12.0093 12.6091 11.8276 12.4577C11.7571 12.4047 11.676 12.3675 11.5898 12.3487C10.7193 12.1331 9.84829 11.9219 8.93935 11.7002C9.00524 11.6767 9.03796 11.6618 9.07026 11.6535C9.91156 11.4445 10.752 11.232 11.5951 11.0313C11.6573 11.0228 11.7154 10.9956 11.7618 10.9533C11.8082 10.9109 11.8406 10.8555 11.8547 10.7943C12.0384 10.2048 12.2348 9.6192 12.4263 9.03229L12.4769 8.90051ZM12.0973 11.184C12.0943 11.2823 12.1303 11.3778 12.1975 11.4495C12.2648 11.5212 12.3577 11.5634 12.456 11.5667C12.5544 11.5695 12.65 11.5335 12.7221 11.4663C12.7941 11.3992 12.8368 11.3064 12.8409 11.208C12.8424 11.1097 12.8056 11.0146 12.7384 10.9428C12.6711 10.871 12.5787 10.8281 12.4804 10.8231C12.3821 10.8211 12.2869 10.8578 12.2153 10.9253C12.1437 10.9928 12.1015 11.0857 12.0977 11.184H12.0973ZM14.4873 16.2873C16.2253 16.5693 18.0075 16.3576 19.6311 15.6764C19.6289 15.6929 19.6311 15.703 19.6268 15.7069C18.7471 16.5583 17.7276 17.252 16.6128 17.7578C16.202 17.908 15.7833 18.0359 15.3587 18.1409C15.3337 18.1473 15.3076 18.1482 15.2823 18.1436C15.2569 18.139 15.2328 18.1291 15.2116 18.1143C14.9609 17.8992 14.7634 17.6289 14.6347 17.3246C14.506 17.0203 14.4496 16.6903 14.4698 16.3606C14.4738 16.3357 14.4796 16.3112 14.4873 16.2873ZM13.1564 14.8438C13.2227 14.6954 13.3034 14.5204 13.3785 14.3437C13.6285 13.7572 13.8969 13.1773 14.1203 12.5808C14.3809 11.8079 14.5078 10.9963 14.4956 10.1808C14.5017 9.89673 14.4956 9.61353 14.4956 9.2976C14.6121 9.37876 14.7137 9.45033 14.8163 9.52102C15.0934 9.66408 15.3221 9.88569 15.4739 10.1581C15.602 10.4814 15.7003 10.8158 15.7676 11.1569C15.7827 11.3104 15.7562 11.465 15.6908 11.6047C15.3404 12.4509 14.8235 13.2181 14.1709 13.8607C13.841 14.2067 13.4867 14.527 13.1564 14.8438ZM18.504 8.63607C18.308 8.45039 18.0656 8.32101 17.8023 8.26157C17.5389 8.20213 17.2644 8.21483 17.0077 8.29833C16.6074 8.44732 16.2619 8.71457 16.0172 9.06458C15.9081 9.19898 15.8121 9.34386 15.689 9.47869C15.6991 9.43026 15.7078 9.38095 15.7209 9.33338C15.8276 8.79853 16.061 8.29708 16.4016 7.87113C16.5633 7.69678 16.7543 7.55206 16.9658 7.44349C17.0668 7.39774 17.1774 7.37721 17.2881 7.38367C17.3987 7.39013 17.5062 7.42339 17.6012 7.48058C18.0341 7.74148 18.3556 8.15291 18.504 8.63607ZM18.4359 9.68335L18.7388 11.054C18.7729 11.2908 18.8823 11.5103 19.0508 11.6801C18.9412 11.8608 18.84 12.0349 18.7327 12.2038C18.6624 12.3146 18.5825 12.422 18.4316 12.4185C18.3641 12.4136 18.2995 12.3894 18.2453 12.3489C18.1912 12.3084 18.1498 12.2532 18.1261 12.1898C18.0121 11.9707 17.9791 11.7183 18.0332 11.4772C18.1527 10.9078 18.2815 10.3401 18.4071 9.77149C18.4106 9.75316 18.4185 9.73527 18.4359 9.68335ZM18.2614 11.2905C18.288 11.4751 18.3561 11.6003 18.4481 11.599C18.5402 11.5977 18.6109 11.4716 18.6013 11.3136C18.5943 11.2023 18.5747 11.0644 18.4399 11.0762C18.3735 11.0823 18.3199 11.215 18.2614 11.2922V11.2905Z" fill="#121212"/>
<path d="M11.9053 21.2143C10.0661 21.2137 8.26847 20.6676 6.73965 19.6453C5.21084 18.6229 4.01957 17.1701 3.31651 15.4706C2.61345 13.7711 2.43019 11.9013 2.7899 10.0977C3.14961 8.29402 4.03614 6.63757 5.33736 5.33781C6.63858 4.03806 8.29603 3.1534 10.1001 2.79572C11.9041 2.43804 13.7737 2.6234 15.4724 3.32838C17.1711 4.03335 18.6226 5.22626 19.6432 6.75622C20.6639 8.28619 21.2079 10.0845 21.2064 11.9236C21.2018 14.3881 20.22 16.7501 18.4764 18.4917C16.7328 20.2333 14.3697 21.2124 11.9053 21.2143ZM20.794 11.9197C20.794 10.1682 20.276 8.45587 19.3052 6.99802C18.3345 5.54017 16.9543 4.40194 15.3383 3.7265C13.7223 3.05105 11.9426 2.86855 10.2232 3.20196C8.50369 3.53536 6.92122 4.36978 5.67478 5.60026C4.42833 6.83074 3.57359 8.40233 3.21805 10.1173C2.86251 11.8324 3.02205 13.6142 3.67662 15.2388C4.33118 16.8634 5.45153 18.2581 6.89674 19.2476C8.34195 20.2371 10.0475 20.7771 11.7988 20.7997C12.9734 20.8109 14.1387 20.5898 15.2275 20.149C16.3163 19.7082 17.3072 19.0564 18.1432 18.2312C18.9791 17.4059 19.6437 16.4236 20.0985 15.3405C20.5534 14.2575 20.7896 13.0952 20.7936 11.9206L20.794 11.9197Z" fill="#121212"/>
</svg>
