<svg width="24" height="24" viewBox="0 0 24 24" fill="none" xmlns="http://www.w3.org/2000/svg">
<path d="M2.61669 10.4234C2.57497 10.4234 2.56454 10.4025 2.5854 10.3712L2.80443 10.0896C2.82529 10.0583 2.87744 10.0375 2.91917 10.0375H6.64276C6.68449 10.0375 6.69492 10.0688 6.67406 10.1001L6.49674 10.3712C6.47588 10.4025 6.42373 10.4338 6.39244 10.4338L2.61669 10.4234Z" fill="#121212"/>
<path d="M1.04172 11.383C1 11.383 0.98957 11.3621 1.01043 11.3308L1.22947 11.0492C1.25033 11.0179 1.30248 10.9971 1.3442 10.9971H6.10039C6.14211 10.9971 6.16297 11.0283 6.15254 11.0596L6.0691 11.31C6.05867 11.3517 6.01695 11.3725 5.97523 11.3725L1.04172 11.383Z" fill="#121212"/>
<path d="M3.56584 12.3426C3.52412 12.3426 3.51369 12.3113 3.53455 12.28L3.68057 12.0192C3.70143 11.9879 3.74316 11.9566 3.78488 11.9566H5.87093C5.91265 11.9566 5.93351 11.9879 5.93351 12.0296L5.91265 12.28C5.91265 12.3217 5.87093 12.353 5.83964 12.353L3.56584 12.3426Z" fill="#121212"/>
<path d="M14.3924 10.2356C13.7353 10.4025 13.2868 10.5277 12.6402 10.6946C12.4837 10.7363 12.4733 10.7467 12.3377 10.5903C12.1812 10.413 12.0665 10.2982 11.8475 10.1939C11.1904 9.87059 10.5541 9.96446 9.95958 10.3504C9.25033 10.8093 8.88527 11.4873 8.8957 12.3321C8.90613 13.1665 9.47979 13.8549 10.3038 13.9697C11.013 14.0635 11.6076 13.8132 12.0769 13.2813C12.1708 13.1665 12.2542 13.0414 12.3585 12.8954C11.9831 12.8954 11.5137 12.8954 10.3455 12.8954C10.1265 12.8954 10.0743 12.7598 10.1473 12.5824C10.2829 12.2591 10.5332 11.7167 10.6793 11.4456C10.7106 11.383 10.7836 11.2787 10.94 11.2787C11.472 11.2787 13.4329 11.2787 14.7366 11.2787C14.7158 11.5603 14.7158 11.8419 14.6741 12.1235C14.5593 12.8745 14.2777 13.5629 13.8188 14.1678C13.0678 15.1587 12.0874 15.7741 10.8462 15.941C9.82399 16.0766 8.87484 15.8784 8.04042 15.2526C7.26858 14.6685 6.83051 13.8967 6.71578 12.9371C6.58018 11.8002 6.91395 10.778 7.60235 9.88102C8.34289 8.911 9.32334 8.29562 10.5228 8.07658C11.5033 7.89927 12.442 8.014 13.2868 8.58766C13.8396 8.95272 14.236 9.45338 14.4967 10.0583C14.5593 10.1522 14.5176 10.2044 14.3924 10.2356Z" fill="#121212"/>
<path d="M17.8449 16.0036C16.8957 15.9827 16.03 15.7115 15.2999 15.0857C14.6845 14.5538 14.2986 13.8758 14.1734 13.0727C13.9857 11.8941 14.309 10.851 15.0183 9.92274C15.7797 8.92143 16.6975 8.39992 17.9387 8.18088C19.0026 7.99314 20.0039 8.09744 20.9113 8.71283C21.7353 9.27606 22.2464 10.0375 22.382 11.0388C22.5593 12.4469 22.1525 13.5942 21.1825 14.5746C20.4941 15.2735 19.6493 15.7115 18.6793 15.9097C18.3977 15.9619 18.116 15.9723 17.8449 16.0036ZM20.3273 11.7898C20.3168 11.6542 20.3168 11.5499 20.296 11.4456C20.1082 10.413 19.1591 9.82886 18.1682 10.0583C17.1982 10.2774 16.5724 10.8927 16.3429 11.8732C16.1552 12.6868 16.5515 13.5107 17.3025 13.8445C17.8761 14.0948 18.4498 14.0635 19.0026 13.7819C19.8266 13.3543 20.2751 12.6868 20.3273 11.7898Z" fill="#121212"/>
</svg>
