<svg width="24" height="24" viewBox="0 0 24 24" fill="none" xmlns="http://www.w3.org/2000/svg">
<path d="M10.2556 13.9916C10.5662 13.7838 10.8726 13.5696 11.1811 13.3587C12.422 12.5104 13.663 11.6623 14.9041 10.8142L16.2867 9.86539C16.2148 9.79939 16.1519 9.73822 16.0854 9.68137C15.6929 9.34594 15.2719 9.05245 14.8152 8.80999C14.1023 8.43154 13.3481 8.18737 12.5412 8.13403C12.1253 8.10655 11.7079 8.12863 11.295 8.19943C10.6742 8.30587 10.0852 8.5045 9.52938 8.80183C8.70825 9.24103 8.02887 9.84094 7.49055 10.5999C6.87018 11.4745 6.52596 12.4509 6.43773 13.5169C6.40236 13.9442 6.42225 14.3723 6.48864 14.7963C6.57363 15.3394 6.72723 15.8629 6.95874 16.3623C7.2159 16.9171 7.55337 17.4182 7.97097 17.8646C8.07246 17.973 8.18238 18.0736 8.29131 18.1806C8.45217 17.957 8.67075 17.835 8.91267 17.749C9.34623 17.5949 9.79956 17.5674 10.253 17.5573C10.5053 17.5516 10.7589 17.5691 11.0109 17.589C11.2968 17.6115 11.5817 17.647 11.8668 17.6794C12.0019 17.6947 12.1364 17.7159 12.284 17.7362C11.8659 16.8583 11.4543 15.994 11.0428 15.13C10.8295 15.1721 10.6277 15.2119 10.4212 15.2526C10.4134 15.2317 10.4067 15.2186 10.4038 15.2048C10.3313 14.8578 10.2635 14.5098 10.1843 14.1644C10.1644 14.0777 10.1867 14.0378 10.2556 13.9916ZM9.68079 9.68644C8.78325 10.4324 8.0649 11.309 7.69335 12.4356C7.58979 12.7495 7.5306 13.0718 7.50159 13.4015C7.42206 14.3054 7.62759 15.1514 8.02146 15.956C8.16636 16.252 8.34645 16.5308 8.51049 16.8175C8.5215 16.8367 8.5323 16.856 8.55015 16.8876C8.42787 16.9499 8.31177 17.0119 8.19288 17.0679C8.15229 17.087 8.11113 17.0947 8.07804 17.0368C7.73382 16.4338 7.4508 15.8053 7.27908 15.1304C7.15968 14.6611 7.09212 14.1836 7.11045 13.6993C7.14111 12.8897 7.36809 12.137 7.79616 11.4461C8.17002 10.8426 8.64675 10.3334 9.19908 9.89125C9.66999 9.5143 10.1762 9.19465 10.7237 8.94085C10.7488 8.92924 10.7745 8.91901 10.7999 8.90815C10.4036 9.13789 10.0306 9.39571 9.68079 9.68644Z" fill="#121212"/>
<path d="M11.4304 15.3809C11.6445 15.3395 11.8537 15.2977 12.0639 15.2608C12.085 15.257 12.1165 15.2783 12.1347 15.2965C12.4385 15.5983 12.7319 15.9113 13.0464 16.2014C13.3102 16.4447 13.5979 16.662 13.8755 16.8902C14.2713 17.2154 14.6172 17.5879 14.9149 18.0037C15.4351 18.7305 15.8111 19.5258 16.0199 20.3962C16.0383 20.4727 16.015 20.5669 15.9883 20.6452C15.898 20.9111 15.7063 21.1029 15.4944 21.2744C15.1975 21.5147 14.8649 21.6942 14.5125 21.8396C14.4392 21.8699 14.4126 21.8554 14.3798 21.7836C14.017 20.9899 13.6495 20.1982 13.2837 19.4057C12.7879 18.3314 12.2924 17.2569 11.7967 16.1826C11.6813 15.9324 11.5654 15.6824 11.45 15.4323C11.443 15.4171 11.438 15.401 11.4304 15.3809Z" fill="#121212"/>
<path d="M12.2445 18.1158C12.2329 18.0908 12.1968 18.0644 12.1695 18.0613C11.6338 18.0011 11.0986 17.9352 10.5616 17.8899C10.1858 17.8583 9.8082 17.881 9.43437 17.9339C9.16971 17.9714 8.91063 18.0343 8.6733 18.1645C8.53392 18.2409 8.43006 18.3435 8.36691 18.4982C8.18355 18.9477 7.9875 19.3921 7.79622 19.8383C7.69692 20.07 7.5972 20.3015 7.49139 20.5477C7.51629 20.5403 7.52604 20.5376 7.53561 20.5344C8.05611 20.3597 8.59551 20.3097 9.1392 20.3092C9.46344 20.3089 9.78831 20.3319 10.1118 20.3583C10.4288 20.3842 10.7457 20.4189 11.0603 20.4656C11.4697 20.5263 11.8768 20.6027 12.2939 20.6739C12.49 20.3206 12.6911 19.9593 12.8901 19.5968C12.9004 19.5782 12.9001 19.5455 12.8911 19.5256C12.6773 19.0549 12.4623 18.5847 12.2445 18.1158ZM9.18021 18.4871C9.13782 18.5001 9.09321 18.5322 9.06717 18.5682C8.77926 18.9659 8.49477 19.3661 8.20983 19.7659C8.20206 19.7768 8.19984 19.7917 8.19501 19.8047C8.18757 19.7982 8.18013 19.7918 8.17269 19.7854C8.22213 19.6801 8.27085 19.5744 8.32116 19.4695C8.48739 19.1228 8.65323 18.7759 8.82243 18.4306C8.83785 18.3991 8.87232 18.3656 8.90481 18.3557C9.24813 18.2518 9.59871 18.1885 9.95682 18.1577C10.2222 18.1349 10.4834 18.1425 10.744 18.1937C10.7714 18.1991 10.798 18.2083 10.825 18.2158C10.252 18.1745 9.71463 18.3234 9.18021 18.4871Z" fill="#121212"/>
<path d="M17.4814 12.7566C17.4168 12.3593 17.3515 11.9621 17.2877 11.5647C17.231 11.2114 17.1766 10.8578 17.1197 10.5046C17.0763 10.2353 17.031 9.96619 16.985 9.68863L10.4753 14.156C10.4531 14.1762 10.4314 14.2142 10.4368 14.2355C10.4901 14.4448 10.5507 14.6522 10.6088 14.8589C10.6235 14.8597 10.6324 14.8619 10.6405 14.8603C11.1561 14.7579 11.6714 14.654 12.1872 14.5529C13.1743 14.3597 14.1619 14.1689 15.1489 13.9755C15.9398 13.8205 16.73 13.662 17.5213 13.509C17.5909 13.4956 17.5975 13.4668 17.5879 13.4099C17.5513 13.1923 17.5168 12.9744 17.4814 12.7566Z" fill="#121212"/>
<path d="M13.7445 7.31497C13.5897 7.53919 13.4348 7.76332 13.2822 7.98421C14.1343 8.13031 14.8091 8.48089 15.175 8.69245C15.2314 8.71819 15.2661 8.71357 15.3116 8.67454C15.5974 8.4292 15.8847 8.18551 16.1731 7.94314C16.7432 7.46404 17.3149 6.98668 17.885 6.50761C18.4844 6.00397 19.083 5.49937 19.6818 4.99492C18.7026 4.29871 17.5962 3.77299 16.4051 3.46102C16.1294 3.86227 15.8518 4.26226 15.5752 4.66288C14.9648 5.5468 14.3547 6.43096 13.7445 7.31497Z" fill="#121212"/>
<path d="M10.5726 7.40245C10.5081 7.64206 10.4386 7.90036 10.3716 8.15326C10.5113 8.12215 11.3411 7.80766 12.5283 7.8868C12.5855 7.89028 12.6152 7.86976 12.6418 7.81984C12.8977 7.34086 13.1415 6.88429 13.399 6.40618C13.7712 5.71534 14.143 5.02432 14.515 4.33339C14.7143 3.96331 14.9137 3.59326 15.1185 3.21301C14.7064 3.16132 14.2868 3.13453 13.8611 3.13453C13.1036 3.13453 12.3653 3.21904 11.6548 3.37888C11.6343 3.46477 11.61 3.54979 11.587 3.63511C11.2489 4.89091 10.9105 6.14662 10.5726 7.40245Z" fill="#121212"/>
<path d="M7.63758 5.5096C7.65747 5.74402 7.6776 5.97841 7.69722 6.21286C7.71612 6.43876 7.73388 6.66475 7.75332 6.89059C7.773 7.11913 7.79496 7.34746 7.81434 7.57603C7.8342 7.81063 7.85208 8.04544 7.87092 8.28013C7.88907 8.5063 7.90686 8.7325 7.92576 8.95861C7.94283 9.16285 7.96005 9.37744 7.97889 9.59365C8.21103 9.36676 8.92992 8.72572 9.81633 8.35771C9.85758 8.34058 9.89847 8.33125 9.90885 8.26498C9.96423 7.91197 10.0184 7.61932 10.0799 7.26724C10.166 6.77491 10.2519 6.28255 10.3376 5.79013C10.4449 5.17351 10.5522 4.55686 10.6588 3.94012C10.6756 3.84313 10.6903 3.74566 10.7064 3.64204C9.57927 4.01566 8.53884 4.58374 7.62444 5.30689C7.62402 5.30869 7.62351 5.31052 7.62348 5.31229C7.62195 5.37796 7.63197 5.44384 7.63758 5.5096Z" fill="#121212"/>
<path d="M6.45507 10.8061C6.54192 10.9809 6.6429 11.1854 6.73239 11.3651C6.92103 10.947 7.31517 10.3224 7.68678 9.89899C7.70601 9.87706 7.7172 9.83452 7.71114 9.80605C7.64871 9.51238 7.58172 9.23707 7.51599 8.94409C7.34226 8.16979 7.16841 7.39549 6.99453 6.62122C6.9489 6.41803 6.90285 6.21496 6.85194 5.98945C6.78372 6.06214 6.73053 6.118 6.67824 6.17467C6.45975 6.41155 6.22353 6.63484 6.02736 6.88897C5.76309 7.23127 5.52087 7.59055 5.2716 7.94452C5.22942 8.0125 5.18802 8.08105 5.1474 8.15008C5.14743 8.16988 5.15418 8.18983 5.16552 8.2126C5.59623 9.07669 6.02544 9.94147 6.45507 10.8061Z" fill="#121212"/>
<path d="M4.39017 11.3198C4.89042 11.7615 5.39091 12.203 5.89146 12.6443C6.00546 12.7449 6.12816 12.8525 6.25224 12.9612C6.29973 12.5866 6.42684 12.1219 6.57012 11.7556C6.5976 11.6853 6.57 11.6436 6.53319 11.5942C6.02685 10.915 5.51541 10.2366 5.0094 9.55705C4.89543 9.40399 4.78044 9.25165 4.66158 9.09319C4.64817 9.11842 4.63959 9.13273 4.63269 9.14779C4.61478 9.18697 4.59717 9.22624 4.5798 9.2656C4.34523 9.80629 4.15593 10.3713 4.01649 10.9557C4.02111 10.9757 4.03155 10.9963 4.04385 11.0079C4.1568 11.1145 4.27371 11.2169 4.39017 11.3198Z" fill="#121212"/>
<path d="M5.8116 14.6162C5.94555 14.6625 6.09507 14.715 6.23247 14.763C6.15201 14.2657 6.18813 13.5603 6.19686 13.4083C6.20043 13.3464 6.17982 13.3115 6.12531 13.2779C5.55807 12.9281 4.98123 12.5728 4.41546 12.2207C4.22796 12.104 4.04007 11.9878 3.84267 11.8654C3.77286 12.3485 3.7365 12.8423 3.7365 13.3446C3.7365 13.5317 3.74166 13.7177 3.75159 13.9023C3.76023 13.9072 3.77034 13.9116 3.78225 13.9157C4.45932 14.1474 5.13534 14.3821 5.8116 14.6162Z" fill="#121212"/>
<path d="M6.75876 16.5226C6.72522 16.4638 6.68991 16.4544 6.62931 16.469C6.05757 16.6064 5.46996 16.7455 4.89786 16.8816C4.73541 16.9202 4.57287 16.9593 4.407 16.9991C4.5939 17.4892 4.81719 17.9612 5.07363 18.4117C5.77815 18.0355 6.48465 17.6593 7.1901 17.2824C6.91704 16.8603 6.89097 16.7547 6.75876 16.5226Z" fill="#121212"/>
<path d="M5.24145 16.1205C5.55522 16.1179 5.86905 16.12 6.18285 16.12H6.58374C6.5757 16.089 6.38679 15.5492 6.32742 15.2696C6.32364 15.243 6.27972 15.208 6.24921 15.2015C5.55366 15.0531 4.86351 14.9109 4.16727 14.7658C4.05525 14.7424 3.94248 14.7212 3.82536 14.6986C3.89022 15.1901 3.9897 15.6707 4.12158 16.1378C4.12398 16.1378 4.12632 16.1378 4.12881 16.1377C4.49964 16.1295 4.87053 16.1237 5.24145 16.1205Z" fill="#121212"/>
</svg>
