<svg width="24" height="24" viewBox="0 0 24 24" fill="none" xmlns="http://www.w3.org/2000/svg">
<path d="M22.6128 9.6528C21.7724 10.478 20.9599 11.3337 20.0854 12.1209C18.8827 13.1979 17.6403 14.2296 16.3606 15.2138C16.5552 14.9498 16.7289 14.6671 16.9475 14.4249C17.7661 13.5172 18.6057 12.6279 19.4225 11.7194C19.6387 11.4797 19.8279 11.2171 19.9868 10.9361C20.345 10.3004 20.2303 9.8016 19.5465 9.5904C18.6927 9.32152 17.8106 9.15254 16.9178 9.08683C15.4193 8.99083 13.9126 9.02662 12.4097 8.99956C9.98705 8.95593 7.58051 8.80407 5.2704 7.96974C4.39653 7.67597 3.59322 7.20385 2.91139 6.58331C2.22956 5.96278 1.68408 5.20736 1.30952 4.36494C1.83316 4.77382 2.34938 5.22894 2.91622 5.60902C4.34269 6.56596 5.97687 6.91811 7.64771 7.11796C10.6691 7.47578 13.7071 7.416 16.7411 7.47404C18.3373 7.50458 19.9331 7.65818 21.5245 7.80611C21.9044 7.89439 22.2705 8.03385 22.6128 8.22065V9.6528ZM8.44843 18.2147C8.44881 18.5225 8.35824 18.8236 8.18808 19.0801C8.01793 19.3366 7.77578 19.5372 7.49205 19.6565C7.20831 19.7759 6.89563 19.8088 6.59326 19.7511C6.2909 19.6933 6.01233 19.5476 5.79254 19.332C5.57274 19.1165 5.42152 18.8409 5.35785 18.5397C5.29418 18.2385 5.32091 17.9253 5.43468 17.6392C5.54845 17.3532 5.74418 17.1072 5.99731 16.932C6.25044 16.7568 6.54968 16.6604 6.85745 16.6547C7.06439 16.6525 7.26973 16.6911 7.46172 16.7684C7.65372 16.8456 7.8286 16.96 7.97637 17.1048C8.12414 17.2497 8.24189 17.4223 8.32289 17.6128C8.40389 17.8032 8.44655 18.0077 8.44843 18.2147ZM15.5402 18.216C15.5417 18.4229 15.5018 18.628 15.4228 18.8193C15.3438 19.0105 15.2273 19.184 15.0802 19.3295C14.9331 19.4751 14.7584 19.5897 14.5664 19.6667C14.3743 19.7437 14.1688 19.7814 13.9619 19.7777C13.5516 19.7725 13.1596 19.6065 12.8703 19.3155C12.581 19.0245 12.4174 18.6316 12.4145 18.2212C12.4194 17.8033 12.5891 17.4042 12.8867 17.1109C13.1844 16.8175 13.5858 16.6535 14.0038 16.6547C14.4144 16.6586 14.8067 16.8252 15.0947 17.1178C15.3827 17.4105 15.5429 17.8054 15.5402 18.216Z" fill="#121212"/>
</svg>
