<svg width="24" height="24" viewBox="0 0 24 24" fill="none" xmlns="http://www.w3.org/2000/svg">
<path d="M11.9594 20.0099C10.3687 20.0095 8.81389 19.5373 7.49158 18.6531C6.16927 17.7689 5.13888 16.5124 4.53075 15.0426C3.92261 13.5727 3.76405 11.9555 4.07512 10.3955C4.38619 8.83555 5.15292 7.40287 6.27832 6.27869C7.40372 5.15451 8.83723 4.38934 10.3976 4.07996C11.9579 3.77059 13.5749 3.9309 15.0441 4.54063C16.5133 5.15036 17.7686 6.18211 18.6514 7.50538C19.5342 8.82865 20.0046 10.384 20.0033 11.9747C19.9993 14.106 19.1502 16.1488 17.6423 17.6551C16.1344 19.1613 14.0908 20.0082 11.9594 20.0099ZM19.6468 11.9716C19.6467 10.4569 19.1987 8.9761 18.3591 7.71538C17.5195 6.45466 16.3259 5.47035 14.9284 4.88626C13.5308 4.30217 11.9918 4.14438 10.5048 4.43274C9.01776 4.7211 7.64924 5.44273 6.57132 6.50687C5.49339 7.571 4.75421 8.93012 4.44673 10.4133C4.13926 11.8964 4.27723 13.4374 4.84328 14.8424C5.40934 16.2473 6.3782 17.4535 7.62801 18.3092C8.87783 19.165 10.3528 19.632 11.8673 19.6516C12.8832 19.6614 13.891 19.4701 14.8327 19.0889C15.7744 18.7077 16.6314 18.144 17.3544 17.4303C18.0775 16.7166 18.6522 15.867 19.0456 14.9303C19.4391 13.9936 19.6434 12.9884 19.6468 11.9725V11.9716Z" fill="#121212"/>
<path d="M8.87476 9.60436V9.28495H5.67273C6.76364 7.01586 8.49993 5.59331 10.9876 5.23113C13.4374 4.87418 15.4913 5.71113 17.1761 7.5408C17.0213 7.55851 16.8722 7.61 16.7395 7.69163C16.6067 7.77326 16.4935 7.88304 16.4078 8.01322C16.3221 8.1434 16.266 8.2908 16.2436 8.44502C16.2211 8.59924 16.2327 8.75652 16.2777 8.90575C16.3244 9.19589 16.4076 9.47899 16.5251 9.74836C16.7794 10.3449 16.8925 10.9921 16.8554 11.6396C16.8308 12.4893 16.6458 13.3267 16.31 14.1076C16.1119 14.5876 15.9316 15.0737 15.7427 15.5568C15.72 15.6148 15.6951 15.6724 15.6554 15.7641L15.2531 14.6902C14.7132 13.2493 14.175 11.808 13.6385 10.3663C13.5961 10.2483 13.5799 10.1224 13.591 9.99753C13.5967 9.90383 13.6373 9.81566 13.7047 9.75034C13.7721 9.68503 13.8615 9.64727 13.9553 9.64451C14.092 9.623 14.2303 9.61336 14.3686 9.61571C14.537 9.62531 14.6038 9.56509 14.5767 9.39753C14.5715 9.36349 14.5715 9.32902 14.568 9.28058H9.82473V9.5424C10.0163 9.58822 10.2039 9.61964 10.382 9.67898C10.5373 9.72459 10.6796 9.8065 10.7971 9.91796C10.9145 10.0294 11.0038 10.1672 11.0575 10.32C11.2909 10.9462 11.5449 11.5649 11.7849 12.1889C11.8121 12.2559 11.8153 12.3302 11.794 12.3993C11.3161 13.5548 10.8343 14.7088 10.3488 15.8614C10.3355 15.8867 10.321 15.9113 10.3052 15.9351C10.2772 15.881 10.2537 15.8444 10.238 15.8042C9.51884 14.0006 8.80014 12.1969 8.08189 10.3933C8.03703 10.3066 8.0165 10.2094 8.02246 10.112C8.02842 10.0146 8.06066 9.92062 8.11575 9.84006C8.17085 9.7595 8.24673 9.69537 8.33535 9.65449C8.42397 9.6136 8.52201 9.59749 8.61905 9.60786C8.70022 9.60524 8.78051 9.60436 8.87476 9.60436Z" fill="#121212"/>
<path d="M14.232 18.4503C12.7987 18.9482 11.2411 18.9588 9.80116 18.4804L12.1418 13.0298L14.232 18.4503ZM8.62298 17.9367C7.2746 17.1843 6.22286 15.9948 5.6411 14.5645C5.05935 13.1341 4.98231 11.5482 5.42269 10.0682L8.62298 17.9367ZM15.4442 17.8761L18.4883 9.97222C18.9475 11.4399 18.8966 13.0197 18.344 14.4548C17.7913 15.8898 16.7693 17.0956 15.4442 17.8761Z" fill="#121212"/>
</svg>
