<svg width="24" height="24" viewBox="0 0 24 24" fill="none" xmlns="http://www.w3.org/2000/svg">
<path d="M12.1078 12.1431C12.1839 12.1536 12.2605 12.1596 12.3373 12.161C12.4028 12.161 12.4246 12.1859 12.4372 12.2435C12.4665 12.3796 12.5031 12.5136 12.5311 12.6497C12.5437 12.7104 12.5782 12.7313 12.6327 12.7536C12.6818 12.7768 12.7374 12.7821 12.79 12.7683C12.8425 12.7546 12.8885 12.7228 12.9199 12.6785C13.0023 12.5913 13.0996 12.5145 13.1865 12.4289C13.1924 12.4207 13.2 12.4137 13.2087 12.4085C13.2174 12.4033 13.2271 12.4 13.2372 12.3987C13.2473 12.3975 13.2575 12.3983 13.2673 12.4012C13.277 12.404 13.286 12.4089 13.2938 12.4154C13.3811 12.47 13.4657 12.5215 13.5556 12.5708C13.5645 12.5738 13.5726 12.5788 13.5793 12.5854C13.5861 12.5919 13.5913 12.5999 13.5946 12.6086C13.598 12.6174 13.5993 12.6268 13.5986 12.6362C13.5979 12.6456 13.5952 12.6547 13.5905 12.6628C13.5421 12.8025 13.5033 12.9456 13.4544 13.0852C13.443 13.1059 13.4397 13.1302 13.4452 13.1531C13.4507 13.1761 13.4646 13.1963 13.4841 13.2096C13.512 13.2314 13.5316 13.2659 13.5613 13.2825C13.5929 13.3036 13.6307 13.3136 13.6687 13.3108C13.8153 13.2755 13.961 13.2336 14.105 13.1882C14.1631 13.1699 14.198 13.1764 14.225 13.2349C14.2521 13.2934 14.2927 13.3601 14.3271 13.4221C14.393 13.5408 14.3935 13.5408 14.2892 13.6346C14.1967 13.7184 14.105 13.8035 14.0103 13.8847C13.9929 13.8991 13.9801 13.9183 13.9734 13.9399C13.9666 13.9615 13.9663 13.9846 13.9724 14.0064C13.9725 14.0414 13.9796 14.076 13.9932 14.1082C14.0068 14.1405 14.0267 14.1697 14.0516 14.1942C14.0766 14.2188 14.1061 14.2381 14.1386 14.2512C14.171 14.2643 14.2057 14.2708 14.2407 14.2704C14.3519 14.2889 14.4611 14.3174 14.5671 14.3555C14.5803 14.3611 14.592 14.3697 14.6012 14.3807C14.6104 14.3917 14.6168 14.4048 14.6199 14.4188C14.6256 14.5252 14.6243 14.6321 14.6199 14.7391C14.6199 14.7604 14.6007 14.7953 14.5846 14.7993C14.3921 14.8429 14.1988 14.8844 13.9977 14.9276C13.979 14.9818 13.9644 15.0374 13.954 15.0938C13.9537 15.1262 13.9659 15.1575 13.9881 15.1811C14.1046 15.3072 14.2255 15.4298 14.3498 15.5594C14.2905 15.6593 14.2289 15.7676 14.1613 15.8714C14.1515 15.8815 14.1394 15.8891 14.126 15.8935C14.1126 15.8979 14.0984 15.899 14.0845 15.8967C13.9391 15.8572 13.7936 15.8135 13.6481 15.7658C13.6268 15.7577 13.6035 15.756 13.5811 15.7609C13.5588 15.7659 13.5384 15.7773 13.5225 15.7937C13.4724 15.8245 13.4358 15.8732 13.4202 15.9299C13.4045 15.9866 13.411 16.0471 13.4383 16.0992C13.4818 16.2292 13.5184 16.3615 13.5478 16.4954C13.4352 16.5604 13.3217 16.6289 13.2048 16.6909C13.1904 16.6988 13.1516 16.6774 13.1341 16.6595C13.0303 16.553 12.9285 16.4446 12.8287 16.3344C12.8127 16.3163 12.7918 16.3033 12.7686 16.2968C12.7453 16.2904 12.7207 16.2909 12.6978 16.2982C12.6409 16.3006 12.5872 16.3244 12.5472 16.3649C12.5073 16.4054 12.4842 16.4595 12.4826 16.5164C12.4647 16.6385 12.4224 16.7572 12.3953 16.8785C12.384 16.93 12.3609 16.9449 12.3103 16.9427C12.2183 16.9373 12.126 16.9373 12.034 16.9427C11.9629 16.9484 11.9437 16.9156 11.9311 16.8554C11.9005 16.7075 11.8652 16.5609 11.8298 16.4143C11.8178 16.3899 11.8008 16.3682 11.78 16.3508C11.7592 16.3333 11.7349 16.3204 11.7088 16.3128C11.6827 16.3053 11.6553 16.3033 11.6283 16.3069C11.6014 16.3105 11.5755 16.3198 11.5523 16.334C11.4393 16.4435 11.3258 16.5521 11.2159 16.6656C11.177 16.7053 11.1456 16.718 11.0945 16.6852C11.0196 16.6368 10.9416 16.593 10.8611 16.5543C10.8501 16.5505 10.8399 16.5443 10.8314 16.5364C10.8228 16.5284 10.8161 16.5187 10.8115 16.5079C10.8069 16.4972 10.8046 16.4856 10.8047 16.4739C10.8048 16.4622 10.8074 16.4507 10.8122 16.44C10.8493 16.2877 10.8847 16.1345 10.9204 15.9823C10.9436 15.8836 10.8044 15.7453 10.7075 15.7711C10.553 15.8125 10.3981 15.854 10.2449 15.8993C10.1926 15.9151 10.1634 15.9068 10.1389 15.8557C10.0918 15.7571 10.0385 15.6611 9.98313 15.5555C10.111 15.4442 10.2367 15.3316 10.3667 15.2247C10.3877 15.2082 10.4032 15.1856 10.411 15.16C10.4188 15.1344 10.4186 15.1071 10.4103 15.0816C10.3924 14.9415 10.3165 14.89 10.1869 14.87C10.0735 14.8525 9.9635 14.8119 9.85091 14.7849C9.79724 14.7718 9.77149 14.7508 9.77848 14.688C9.78858 14.5966 9.79193 14.5046 9.78851 14.4127C9.7866 14.4012 9.78709 14.3895 9.78995 14.3783C9.79281 14.3671 9.79797 14.3566 9.80512 14.3475C9.81226 14.3384 9.82123 14.3308 9.83144 14.3254C9.84165 14.3199 9.85289 14.3167 9.86444 14.3158C10.0054 14.2804 10.145 14.2399 10.286 14.2054C10.3388 14.1927 10.358 14.1617 10.378 14.1133C10.4042 14.0642 10.4103 14.0069 10.3952 13.9534C10.38 13.8999 10.3448 13.8543 10.2969 13.8262C10.2009 13.7524 10.1223 13.6573 10.0307 13.5766C10.0208 13.5705 10.0124 13.5622 10.0061 13.5524C9.9999 13.5425 9.99601 13.5314 9.99474 13.5198C9.99348 13.5082 9.99488 13.4965 9.99885 13.4855C10.0028 13.4746 10.0092 13.4647 10.0176 13.4566C10.0703 13.3811 10.1186 13.3027 10.1625 13.2218C10.1668 13.2111 10.1734 13.2013 10.1817 13.1932C10.19 13.1851 10.1999 13.1788 10.2108 13.1747C10.2216 13.1706 10.2332 13.1688 10.2448 13.1694C10.2564 13.17 10.2677 13.173 10.2781 13.1782C10.4204 13.2188 10.5635 13.2572 10.7071 13.2951C10.7365 13.2984 10.7663 13.295 10.7943 13.2852C10.8222 13.2753 10.8476 13.2594 10.8685 13.2384C10.8895 13.2175 10.9055 13.1921 10.9153 13.1641C10.9251 13.1362 10.9285 13.1064 10.9252 13.0769L10.7917 12.5642C10.906 12.5027 11.0164 12.4399 11.1308 12.3849C11.1453 12.3828 11.1602 12.3841 11.1742 12.3886C11.1882 12.3931 11.2009 12.4008 11.2115 12.4111C11.318 12.5149 11.4218 12.6211 11.5231 12.7296C11.5391 12.7476 11.5598 12.7609 11.5829 12.7679C11.606 12.7749 11.6306 12.7754 11.654 12.7693C11.717 12.7669 11.7766 12.7403 11.8204 12.6949C11.8642 12.6495 11.8887 12.5889 11.8887 12.5258C11.9088 12.3949 11.9507 12.2679 11.9825 12.1392L12.1078 12.1431ZM11.0321 14.5239C11.0377 14.8243 11.1607 15.1105 11.375 15.321C11.5892 15.5316 11.8775 15.6498 12.1778 15.6501C12.4782 15.6504 12.7668 15.533 12.9815 15.3229C13.1962 15.1128 13.3199 14.8269 13.3261 14.5265C13.3257 14.2216 13.2047 13.9293 12.9895 13.7132C12.7744 13.4972 12.4825 13.375 12.1776 13.3732C12.0266 13.3726 11.8769 13.402 11.7373 13.4596C11.5977 13.5173 11.4709 13.6021 11.3644 13.7092C11.2578 13.8162 11.1736 13.9434 11.1165 14.0832C11.0595 14.2231 11.0308 14.3729 11.0321 14.5239ZM5.4432 5.92189L5.19142 6.72567C4.77979 8.04844 4.36888 9.37207 3.95869 10.6966C3.93819 10.7633 3.91288 10.7908 3.83739 10.7895C3.47769 10.7847 3.11795 10.7847 2.75826 10.7895C2.67535 10.7895 2.6544 10.7529 2.63346 10.6883C1.92451 8.51549 1.21484 6.34298 0.504441 4.17076C0.482622 4.10356 0.460804 4.03636 0.437241 3.95956C0.475204 3.95956 0.503568 3.9552 0.532368 3.9552C0.889313 3.9552 1.24582 3.95738 1.60277 3.9552C1.61762 3.95246 1.63287 3.95277 1.6476 3.95609C1.66233 3.95942 1.67624 3.9657 1.68847 3.97455C1.70071 3.9834 1.71102 3.99464 1.71879 4.00759C1.72656 4.02054 1.73163 4.03493 1.73368 4.04989C2.24742 5.66356 2.76262 7.27665 3.27928 8.88916C3.288 8.91665 3.29848 8.94415 3.31637 8.99651C3.33688 8.94415 3.35084 8.9136 3.36 8.88175C3.88364 7.26458 4.40524 5.64727 4.9248 4.02982C4.9475 3.95956 4.97542 3.93076 5.05266 3.93251C5.33193 3.93731 5.61164 3.93775 5.89091 3.93251C5.90654 3.93017 5.92247 3.93094 5.9378 3.93479C5.95312 3.93865 5.96753 3.9455 5.98019 3.95495C5.99285 3.96441 6.00351 3.97628 6.01156 3.98988C6.0196 4.00348 6.02487 4.01853 6.02706 4.03418C6.54866 5.65135 7.0723 7.26822 7.59797 8.8848C7.60654 8.91817 7.6244 8.94843 7.64946 8.97207C7.65949 8.94327 7.67084 8.91491 7.68 8.8848C8.19579 7.27171 8.71099 5.65847 9.2256 4.04509C9.24699 3.97833 9.27317 3.95302 9.34735 3.95389C9.68946 3.95869 10.0311 3.95607 10.3732 3.95607H10.4767C10.464 3.99971 10.4557 4.032 10.4452 4.06385C9.73979 6.26865 9.03506 8.47389 8.33106 10.6796C8.3287 10.6972 8.32278 10.7141 8.31365 10.7294C8.30452 10.7447 8.29238 10.7579 8.27796 10.7683C8.26355 10.7787 8.24717 10.7861 8.22981 10.79C8.21246 10.7938 8.19449 10.7941 8.17702 10.7908C7.83814 10.7854 7.49918 10.7854 7.1603 10.7908C7.14619 10.7931 7.13177 10.7925 7.1179 10.7891C7.10402 10.7857 7.09096 10.7796 7.07947 10.7711C7.06798 10.7626 7.05829 10.7519 7.05097 10.7396C7.04364 10.7274 7.03883 10.7138 7.0368 10.6996C6.528 9.14356 6.01775 7.5872 5.50604 6.03055L5.46982 5.92364L5.4432 5.92189ZM23.8713 3.95258V10.6163C23.8713 10.7359 23.8713 10.7359 23.7482 10.7363H22.7489C22.6263 10.7363 22.6259 10.7363 22.6259 10.6089V5.72335L22.5988 5.71418L20.5121 8.73207L18.374 5.73644L18.3539 5.73862C18.3539 5.77396 18.3482 5.80975 18.3482 5.84509V10.6015C18.3482 10.7354 18.3482 10.7354 18.2125 10.7354H17.3114C17.174 10.7354 17.174 10.7354 17.174 10.601V4.0656C17.174 3.97833 17.1954 3.94865 17.2879 3.9504C17.6623 3.95607 18.0371 3.95433 18.4119 3.9504C18.4421 3.94801 18.4723 3.95415 18.4992 3.96811C18.526 3.98208 18.5484 4.00331 18.5638 4.02938C19.1828 4.9184 19.8036 5.80567 20.4262 6.6912C20.4458 6.71956 20.4672 6.74662 20.4956 6.78502C20.5266 6.74138 20.5505 6.70953 20.5741 6.67636C21.1949 5.792 21.8153 4.90735 22.4352 4.0224C22.4501 3.99772 22.4716 3.97771 22.4973 3.96467C22.523 3.95163 22.5518 3.94608 22.5805 3.94865C22.9732 3.95171 23.366 3.94865 23.7587 3.94865L23.8713 3.95258ZM16.3597 3.95215V10.6154C16.3597 10.7372 16.3597 10.7376 16.2393 10.7376C15.9338 10.7376 15.6284 10.735 15.3207 10.7376C15.2391 10.7376 15.2143 10.7132 15.2147 10.632C15.2173 9.75665 15.2173 8.88116 15.2147 8.00553C15.2147 7.86502 15.2147 7.86502 15.0746 7.86502H12.3456C12.2247 7.86502 12.2243 7.86502 12.2243 7.98807V10.6145C12.2243 10.7359 12.2243 10.7359 12.1012 10.7363H11.1735C11.0989 10.7363 11.0784 10.7127 11.0784 10.6399C11.0801 8.44087 11.0801 6.24189 11.0784 4.04291C11.0784 4.01673 11.0815 3.99055 11.0836 3.95564C11.119 3.95564 11.1508 3.95127 11.1823 3.95127C11.4912 3.95127 11.8006 3.95476 12.1095 3.94865C12.2012 3.94865 12.2247 3.97353 12.2243 4.06255C12.2212 4.92305 12.2243 5.78356 12.2243 6.64451C12.2243 6.78109 12.2243 6.78109 12.3587 6.78109H15.0964C15.2138 6.78109 15.2143 6.78109 15.2143 6.66284V4.07215C15.2143 3.95084 15.2143 3.95084 15.3343 3.95084H16.3575L16.3597 3.95215Z" fill="#121212"/>
<path d="M7.05426 18.5341L6.74095 17.9551C6.7728 17.9258 6.80466 17.8961 6.83739 17.8678C7.01193 17.7164 7.18648 17.5623 7.36495 17.4157C7.39003 17.4005 7.40822 17.3762 7.41563 17.3478C7.42305 17.3195 7.41911 17.2894 7.40466 17.2639C7.38172 17.2125 7.367 17.1579 7.36102 17.102C7.35273 16.9994 7.29295 16.968 7.20306 16.9462C6.96699 16.8886 6.73353 16.8205 6.4979 16.7607C6.4416 16.7468 6.41979 16.7245 6.42284 16.6647C6.432 16.4871 6.43288 16.3087 6.44379 16.1311C6.44828 16.1148 6.45656 16.0999 6.46793 16.0874C6.47931 16.075 6.49346 16.0654 6.50924 16.0595C6.75032 15.9865 6.99269 15.9179 7.23622 15.8535C7.26518 15.8502 7.29202 15.8367 7.31198 15.8154C7.33195 15.7942 7.34376 15.7666 7.34531 15.7375C7.34726 15.7019 7.35569 15.667 7.37019 15.6345C7.43608 15.5119 7.3872 15.432 7.29164 15.3473C7.11709 15.1937 6.9587 15.0253 6.79026 14.8673C6.78049 14.8613 6.77217 14.8532 6.7659 14.8436C6.75963 14.8339 6.75556 14.8231 6.75397 14.8117C6.75239 14.8003 6.75333 14.7887 6.75674 14.7777C6.76015 14.7668 6.76593 14.7567 6.77368 14.7482C6.86793 14.6047 6.9587 14.4576 7.04553 14.3092C7.04977 14.2986 7.05616 14.2889 7.06432 14.2809C7.07247 14.2728 7.08221 14.2666 7.09291 14.2625C7.10361 14.2584 7.11505 14.2565 7.1265 14.2571C7.13794 14.2576 7.14916 14.2605 7.15942 14.2656C7.40684 14.3376 7.65644 14.4031 7.9043 14.4737C7.9619 14.4903 8.00815 14.4903 8.0435 14.4353C8.04977 14.4253 8.0581 14.4167 8.06793 14.41C8.10158 14.3911 8.13114 14.3657 8.1549 14.3353C8.17865 14.3049 8.19613 14.2701 8.20632 14.2329C8.21651 14.1956 8.21921 14.1568 8.21425 14.1185C8.2093 14.0802 8.19679 14.0433 8.17746 14.0099C8.10415 13.814 8.06619 13.6049 8.00684 13.4033C7.99113 13.3492 8.00073 13.3248 8.05048 13.2991C8.20539 13.2175 8.35942 13.1332 8.5104 13.0455C8.51881 13.0387 8.52856 13.0337 8.53902 13.0309C8.54948 13.0281 8.56042 13.0275 8.57112 13.0292C8.58182 13.0309 8.59204 13.0348 8.60113 13.0407C8.61021 13.0466 8.61796 13.0543 8.62386 13.0634C8.7984 13.2467 8.97513 13.4265 9.1475 13.6102C9.1621 13.6324 9.18448 13.6483 9.21024 13.6549C9.236 13.6614 9.26327 13.6581 9.2867 13.6455C9.31841 13.6289 9.35313 13.6188 9.3888 13.6159C9.56335 13.6111 9.62182 13.505 9.65062 13.3492C9.68902 13.1489 9.75099 12.9535 9.79986 12.7549C9.81339 12.7004 9.83608 12.6772 9.89586 12.6799C10.0652 12.6864 10.2349 12.6877 10.4042 12.6886C10.4165 12.6864 10.429 12.6868 10.4411 12.6899C10.4531 12.693 10.4644 12.6986 10.4741 12.7063C10.4838 12.7141 10.4917 12.7239 10.4974 12.735C10.503 12.746 10.5062 12.7582 10.5068 12.7706C10.5295 12.8889 10.5626 13.0049 10.5967 13.1433C10.4719 13.111 10.3632 13.0887 10.2589 13.0538C10.2437 13.0456 10.227 13.0407 10.2097 13.0396C10.1925 13.0385 10.1752 13.0412 10.1591 13.0474C10.143 13.0536 10.1285 13.0633 10.1165 13.0757C10.1045 13.0881 10.0953 13.103 10.0896 13.1193C10.0207 13.2467 9.9395 13.3684 9.86095 13.4906C9.85404 13.4981 9.84885 13.5071 9.84575 13.5168C9.84265 13.5266 9.84171 13.5369 9.843 13.547C9.84429 13.5571 9.84777 13.5669 9.85321 13.5755C9.85864 13.5842 9.8659 13.5915 9.87448 13.5971C9.99666 13.7101 10.1154 13.8262 10.2349 13.9418C10.3113 14.0156 10.2921 14.0845 10.1882 14.1129C10.0394 14.1539 9.89106 14.1953 9.74182 14.2324C9.7315 14.2333 9.72147 14.2363 9.71237 14.2413C9.70328 14.2463 9.69531 14.2531 9.68899 14.2613C9.68267 14.2695 9.67813 14.2789 9.67565 14.289C9.67318 14.299 9.67283 14.3095 9.67462 14.3197C9.67462 14.4148 9.66197 14.5095 9.66459 14.6042C9.66871 14.6313 9.66227 14.6589 9.64659 14.6813C9.63091 14.7037 9.60719 14.7192 9.58037 14.7247C9.29277 14.821 9.03567 14.9915 8.83502 15.219C8.63437 15.4465 8.49726 15.7228 8.43753 16.0202C8.35991 16.4071 8.41337 16.8088 8.58945 17.1619C8.76554 17.515 9.05423 17.7994 9.40994 17.9702C9.76564 18.1409 10.1681 18.1884 10.5538 18.1049C10.9394 18.0215 11.2863 17.812 11.5396 17.5095C11.5712 17.4772 11.6137 17.4579 11.6588 17.4554C12.0751 17.4519 12.4914 17.4519 12.9076 17.4554C12.9423 17.4533 12.9766 17.4635 13.0045 17.4842C13.1677 17.6527 13.3266 17.8255 13.4963 18.0079C13.409 18.1571 13.3056 18.3338 13.1965 18.5062C13.1843 18.5254 13.1302 18.5332 13.1014 18.5249C12.862 18.4572 12.6234 18.386 12.3858 18.3116C12.3621 18.2995 12.3349 18.2965 12.3093 18.3032C12.2836 18.3099 12.2613 18.3257 12.2466 18.3478C12.219 18.3867 12.1849 18.4205 12.1458 18.4477C12.0367 18.5175 12.0327 18.6031 12.0711 18.7187C12.1405 18.929 12.1903 19.1463 12.2557 19.3584C12.262 19.3705 12.2655 19.3838 12.266 19.3975C12.2665 19.4111 12.264 19.4247 12.2586 19.4372C12.2532 19.4497 12.2451 19.4609 12.2349 19.4699C12.2246 19.4789 12.2125 19.4855 12.1994 19.4893C12.0493 19.5673 11.9012 19.6492 11.7552 19.735C11.7464 19.7424 11.736 19.7477 11.7249 19.7508C11.7138 19.7538 11.7022 19.7543 11.6908 19.7524C11.6795 19.7505 11.6686 19.7462 11.6591 19.7397C11.6496 19.7332 11.6416 19.7248 11.6356 19.7149C11.4681 19.5303 11.2953 19.3501 11.1277 19.1651C11.113 19.1413 11.09 19.1239 11.0631 19.1162C11.0362 19.1085 11.0074 19.1112 10.9824 19.1236C10.9507 19.14 10.9162 19.1502 10.8807 19.1537C10.7215 19.1603 10.6674 19.2532 10.6407 19.3985C10.6006 19.6167 10.5347 19.8297 10.4867 20.0461C10.4732 20.1076 10.4457 20.1203 10.3903 20.1194C10.2208 20.1166 10.0513 20.1166 9.8819 20.1194C9.82517 20.1194 9.79986 20.1059 9.78633 20.0461C9.72786 19.7843 9.6611 19.5286 9.60175 19.2689C9.58997 19.2179 9.56902 19.1895 9.5184 19.1817C9.50347 19.1812 9.48872 19.1783 9.47477 19.1729C9.31244 19.0857 9.19942 19.1494 9.0864 19.2764C8.94633 19.4335 8.78488 19.5713 8.63651 19.721C8.62924 19.731 8.61998 19.7394 8.6093 19.7457C8.59863 19.752 8.58678 19.756 8.57449 19.7575C8.5622 19.7589 8.54974 19.7578 8.53788 19.7543C8.52603 19.7507 8.51504 19.7447 8.5056 19.7367C8.34502 19.6412 8.18139 19.5513 8.01208 19.4553C8.0736 19.1935 8.12859 18.9295 8.19797 18.6698C8.21227 18.6252 8.21333 18.5775 8.20102 18.5323C8.1887 18.4872 8.16354 18.4466 8.12859 18.4154C8.091 18.3645 8.03673 18.3284 7.97524 18.3134C7.91376 18.2984 7.84895 18.3055 7.79215 18.3334C7.55171 18.4089 7.30604 18.466 7.05426 18.5341ZM13.8393 15.9535C13.9471 15.9866 14.0352 16.0111 14.1216 16.0407C14.1313 16.0459 14.1419 16.049 14.1528 16.0498C14.1638 16.0506 14.1748 16.0491 14.1851 16.0454C14.1954 16.0416 14.2048 16.0357 14.2126 16.0281C14.2205 16.0204 14.2267 16.0112 14.2307 16.001C14.3095 15.8617 14.3913 15.7241 14.4759 15.5882C14.4826 15.5806 14.4876 15.5717 14.4906 15.562C14.4936 15.5524 14.4945 15.5422 14.4932 15.5321C14.4919 15.5221 14.4885 15.5125 14.4832 15.5038C14.4779 15.4952 14.4708 15.4878 14.4624 15.4822C14.3442 15.3696 14.2289 15.2535 14.1133 15.1396C14.0697 15.096 14.0666 15.0476 14.1268 15.0323C14.3154 14.9839 14.5069 14.945 14.7068 14.9014C14.7158 15.0361 14.7671 15.1645 14.8532 15.2684C14.9394 15.3724 15.0561 15.4466 15.1868 15.4804C15.5319 15.6113 15.8849 15.7248 16.2397 15.8317C16.642 15.9365 17.0258 16.1029 17.3773 16.3248C17.6095 16.4787 17.8035 16.6836 17.9444 16.9238C18.0854 17.1641 18.1696 17.4334 18.1907 17.7111C18.2418 18.0529 18.2017 18.4021 18.0746 18.7235C17.9731 18.9457 17.8286 19.1456 17.6495 19.3117C17.4703 19.4778 17.2601 19.6069 17.0308 19.6913C16.538 19.8958 16.0025 19.9766 15.4713 19.9265C14.8403 19.874 14.2245 19.7049 13.6551 19.4278C13.6266 19.4174 13.6025 19.3977 13.5866 19.3719C13.5708 19.3461 13.5642 19.3156 13.5679 19.2855C13.5713 18.9364 13.5679 18.5873 13.5679 18.2352C13.5679 18.2064 13.5705 18.1776 13.5722 18.1366C13.6102 18.1571 13.639 18.1715 13.666 18.1876C14.1048 18.462 14.5886 18.6566 15.0951 18.7623C15.5397 18.8526 16.0001 18.8259 16.4313 18.6847C16.5607 18.652 16.6779 18.5827 16.7689 18.4851C16.8599 18.3875 16.9209 18.2658 16.9444 18.1344C16.9772 17.9869 16.9664 17.833 16.9135 17.6914C16.8606 17.5499 16.7678 17.4267 16.6464 17.3367C16.4125 17.173 16.1508 17.0532 15.874 16.9833C15.4983 16.8646 15.1187 16.7564 14.7474 16.6246C14.4325 16.52 14.1507 16.3343 13.9305 16.0861C13.9073 16.0591 13.8868 16.0311 13.8637 16.0028C13.8547 15.9868 13.8466 15.9703 13.8393 15.9535ZM17.7565 14.6064C17.4058 14.3237 16.9862 14.1392 16.5408 14.0719C16.1497 14.0068 15.749 14.0296 15.3679 14.1386C15.2389 14.171 15.1177 14.2289 15.0115 14.3091C14.9054 14.3892 14.8164 14.4899 14.75 14.6051C14.75 14.5231 14.7473 14.441 14.75 14.359C14.7524 14.3469 14.7523 14.3343 14.7495 14.3223C14.7467 14.3102 14.7415 14.2989 14.734 14.289C14.7265 14.2792 14.717 14.271 14.7062 14.2651C14.6953 14.2592 14.6833 14.2556 14.671 14.2547C14.5121 14.2193 14.3559 14.1718 14.1971 14.1351C14.136 14.1212 14.1229 14.0828 14.1055 14.0321C14.088 13.9815 14.1103 13.9567 14.143 13.9274C14.2608 13.8227 14.3756 13.7149 14.4943 13.6115C14.503 13.6063 14.5105 13.5993 14.5163 13.5909C14.522 13.5825 14.5258 13.5729 14.5274 13.5628C14.529 13.5528 14.5283 13.5425 14.5254 13.5327C14.5226 13.523 14.5176 13.5139 14.5108 13.5063C14.4716 13.4439 14.4384 13.3754 14.3978 13.3039C14.4275 13.286 14.4537 13.2681 14.4812 13.2537C14.8204 13.0876 15.189 12.9899 15.566 12.9661C16.289 12.9217 17.0116 13.0581 17.6688 13.3628C17.6983 13.3703 17.7241 13.3883 17.7413 13.4134C17.7584 13.4386 17.7659 13.4691 17.7622 13.4993C17.7574 13.8375 17.7622 14.1757 17.76 14.5143C17.7604 14.5396 17.7583 14.5658 17.7565 14.6064Z" fill="#121212"/>
<path d="M12.2823 13.5098C12.2116 13.7311 12.1449 13.9462 12.0733 14.1578C12.0616 14.1801 12.0587 14.2059 12.0652 14.2302C12.0718 14.2545 12.0873 14.2754 12.1087 14.2887C12.1526 14.3195 12.1911 14.3574 12.2225 14.4009C12.2832 14.4929 12.3565 14.4903 12.4512 14.4615C12.6663 14.3956 12.8845 14.3398 13.1018 14.28C13.1215 14.2748 13.1415 14.2717 13.1664 14.2665C13.2224 14.4407 13.2224 14.6281 13.1664 14.8023C13.1242 14.9513 13.049 15.0888 12.9462 15.2047C12.8435 15.3205 12.7159 15.4116 12.573 15.4713C12.4302 15.5309 12.2756 15.5576 12.121 15.5492C11.9664 15.5408 11.8157 15.4976 11.6801 15.4228C11.6406 15.3977 11.605 15.3668 11.5745 15.3312C11.4873 15.2391 11.4 15.1457 11.3127 15.0515C11.2856 15.0247 11.2625 14.9941 11.2442 14.9607C11.1676 14.7992 11.1347 14.6204 11.1487 14.4422C11.1628 14.264 11.2233 14.0925 11.3243 13.945C11.4253 13.7975 11.5632 13.679 11.7242 13.6014C11.8853 13.5239 12.0639 13.4899 12.2422 13.5028C12.2557 13.5042 12.2691 13.5066 12.2823 13.5098Z" fill="#121212"/>
</svg>
