<svg width="24" height="24" viewBox="0 0 24 24" fill="none" xmlns="http://www.w3.org/2000/svg">
<g clip-path="url(#clip0_174_71)">
<path d="M13.2397 22.7725H11.6116C11.441 22.742 11.2717 22.7044 11.1002 22.6813C9.91898 22.5835 8.78711 22.1639 7.82749 21.4682C7.60382 21.3252 7.41735 21.131 7.28344 20.9017C7.14954 20.6724 7.07203 20.4146 7.05731 20.1495C7.08742 18.3648 7.06997 16.5713 7.23535 14.7993C7.39506 13.0879 8.28611 12.3866 10.0076 12.3325C10.8367 12.3068 11.6657 12.3068 12.4948 12.2767C13.4662 12.2413 14.4423 12.233 15.4067 12.1279C16.044 12.1007 16.653 11.8574 17.1335 11.4379C17.614 11.0184 17.9373 10.4477 18.0502 9.81993C18.1223 9.54293 18.176 9.26143 18.2108 8.97731C18.2845 8.20451 18.3364 7.42953 18.4001 6.62094C19.0508 6.62094 19.6713 6.63534 20.2909 6.61702C20.5795 6.58849 20.8705 6.6377 21.1337 6.75955C21.3969 6.8814 21.6227 7.07144 21.7876 7.30996C22.1939 7.93186 22.5331 8.59506 22.7996 9.28844C22.9775 9.87854 23.1097 10.4815 23.1949 11.0919V12.9111C23.1644 13.0473 23.1229 13.1817 23.105 13.3196C23.0037 14.2867 22.7136 15.2246 22.2511 16.08C22.0517 16.498 21.732 16.8468 21.333 17.0818C20.934 17.3167 20.4738 17.4271 20.0116 17.3987C17.6701 17.3459 15.3264 17.3825 12.984 17.3825H12.3932L12.4394 17.9603H17.8036C17.8036 18.5393 17.7657 19.0652 17.8115 19.584C17.9057 20.6531 17.3786 21.3408 16.505 21.823C16.1626 22.0245 15.797 22.1839 15.4163 22.2977C14.7015 22.4876 13.9671 22.6172 13.2397 22.7725ZM15.4106 21.0707C15.5417 21.069 15.6711 21.0415 15.7915 20.9896C15.9119 20.9378 16.0208 20.8626 16.112 20.7685C16.2032 20.6743 16.2749 20.5631 16.323 20.4411C16.371 20.3192 16.3945 20.1889 16.392 20.0579C16.3797 19.7937 16.2663 19.5443 16.0752 19.3614C15.8842 19.1785 15.6302 19.076 15.3657 19.0752C15.1013 19.0862 14.8516 19.1997 14.6695 19.3917C14.4875 19.5837 14.3873 19.8391 14.3904 20.1037C14.3922 20.2346 14.4202 20.3639 14.4727 20.4838C14.5253 20.6037 14.6014 20.7118 14.6966 20.8018C14.7917 20.8917 14.9039 20.9617 15.0266 21.0075C15.1492 21.0533 15.2798 21.0741 15.4106 21.0685V21.0707Z" fill="#121212"/>
<path d="M1.65338 12.9094V11.0902C1.68393 10.954 1.72538 10.8196 1.74327 10.6817C1.8435 9.71429 2.13354 8.77609 2.5968 7.92087C2.79627 7.50292 3.11606 7.15409 3.51514 6.91913C3.91423 6.68417 4.37441 6.5738 4.83665 6.60218C7.17818 6.65542 9.52145 6.61876 11.8643 6.61876H12.4551L12.4093 6.04145H7.04465C7.04465 5.4624 7.08262 4.93614 7.0368 4.41731C6.94255 3.34822 7.46967 2.66051 8.34327 2.17833C8.68559 1.97681 9.051 1.8174 9.43156 1.70356C10.1494 1.512 10.8838 1.3824 11.6134 1.22749H13.241C13.4112 1.25847 13.5809 1.29556 13.7524 1.31913C14.9336 1.4168 16.0655 1.83619 17.0252 2.53178C17.2434 2.66865 17.4262 2.85504 17.5589 3.07582C17.6916 3.2966 17.7703 3.54555 17.7888 3.80247C17.76 5.61818 17.7783 7.44262 17.5994 9.24567C17.4463 10.7917 16.7629 11.3468 15.2282 11.602C15.0085 11.6394 14.7864 11.6614 14.5636 11.6679C13.0647 11.7041 11.5649 11.7268 10.066 11.7679C8.31753 11.8159 7.30298 12.4913 6.86836 13.9039C6.75701 14.269 6.68102 14.6439 6.64145 15.0236C6.55985 15.7955 6.5136 16.5713 6.44989 17.3799C5.80058 17.3799 5.17964 17.3655 4.56 17.3839C4.27143 17.4122 3.98053 17.3628 3.71745 17.2409C3.45437 17.119 3.22866 16.9289 3.06371 16.6905C2.65759 16.0686 2.31853 15.4054 2.05222 14.712C1.8731 14.1223 1.73975 13.5196 1.65338 12.9094ZM9.44204 2.93018C9.31098 2.93206 9.18157 2.95973 9.06121 3.01163C8.94085 3.06352 8.83189 3.13862 8.74056 3.23263C8.64922 3.32664 8.5773 3.43772 8.5289 3.55953C8.4805 3.68134 8.45657 3.81149 8.45847 3.94254C8.45245 4.07976 8.47465 4.21675 8.52371 4.34503C8.57277 4.47332 8.64763 4.59017 8.74368 4.68836C8.83972 4.78654 8.95489 4.86397 9.08206 4.91585C9.20923 4.96772 9.3457 4.99295 9.48301 4.98995C9.62032 4.98696 9.75556 4.95582 9.88035 4.89845C10.0051 4.84108 10.1168 4.75871 10.2085 4.65644C10.3002 4.55416 10.3699 4.43416 10.4133 4.30386C10.4567 4.17356 10.4729 4.03573 10.4609 3.89891C10.4588 3.76808 10.4305 3.63899 10.3779 3.51919C10.3253 3.39938 10.2494 3.29125 10.1545 3.20111C10.0597 3.11098 9.94782 3.04063 9.82549 2.99419C9.70316 2.94775 9.57281 2.9257 9.44204 2.93018Z" fill="#121212"/>
</g>
<defs>
<clipPath id="clip0_174_71">
<rect width="24" height="24" fill="white"/>
</clipPath>
</defs>
</svg>
