<svg width="24" height="24" viewBox="0 0 24 24" fill="none" xmlns="http://www.w3.org/2000/svg">
<path d="M15.6065 10.1607L17.1993 11.7569C17.6531 11.3201 17.9845 10.7719 18.1606 10.1671C18.3367 9.56228 18.3513 8.92188 18.2029 8.30967C19.6403 7.61149 20.1748 6.83084 19.992 5.73513C19.9169 5.28243 19.6995 4.86544 19.3714 4.54467C19.0432 4.22391 18.6214 4.01605 18.1671 3.95127C17.0409 3.79724 16.2908 4.31258 15.6288 5.74037C13.7799 5.27695 12.4717 6.21513 11.3123 7.51986C11.0169 7.85193 10.6879 8.15389 10.3676 8.46327C9.77455 9.03709 9.17717 9.60611 8.62211 10.1372L10.3108 11.887C10.4156 11.7096 10.5353 11.5414 10.6687 11.3843C11.6998 10.3562 12.7305 9.32684 13.7817 8.31927C13.9091 8.17238 14.0692 8.05736 14.2491 7.98343C14.4289 7.90949 14.6236 7.87869 14.8175 7.89349C15.0114 7.90829 15.1992 7.96829 15.3657 8.06867C15.5323 8.16905 15.6731 8.30703 15.7767 8.47157C15.9576 8.72604 16.04 9.03747 16.0087 9.34809C15.9774 9.65871 15.8345 9.94744 15.6065 10.1607ZM8.29833 5.688C8.23157 5.5392 8.17615 5.41266 8.11855 5.28742C7.94353 4.84028 7.6231 4.46506 7.20887 4.2222C6.79464 3.97935 6.31072 3.88299 5.83506 3.94866C5.38996 4.00418 4.97314 4.1967 4.64229 4.49957C4.31143 4.80243 4.08291 5.20066 3.98837 5.63913C3.8812 6.11835 3.94412 6.61993 4.16633 7.05783C4.38855 7.49573 4.75621 7.84267 5.20626 8.03913C5.53964 8.20364 5.5632 8.38822 5.52088 8.7024C5.43143 9.26495 5.48172 9.84087 5.66731 10.3794C5.85291 10.9179 6.16812 11.4026 6.58517 11.7905C7.66735 12.8557 8.73731 13.9331 9.81426 15.0026C9.91292 15.0917 10.016 15.1758 10.1232 15.2544L10.0246 15.0947L11.7098 13.7105C11.5279 13.5116 11.4236 13.3894 11.3101 13.2742C10.2628 12.2304 9.21164 11.1923 8.17135 10.1428C7.92703 9.92387 7.77694 9.61884 7.75254 9.29167C7.72813 8.96449 7.83131 8.64057 8.04044 8.38778C8.24228 8.12906 8.53642 7.95849 8.86122 7.9118C9.18602 7.86511 9.51629 7.94592 9.78284 8.13731C9.8976 8.20757 10.0089 8.28349 9.98444 8.26822L11.6448 6.75971C10.7337 5.75084 9.57775 5.54138 8.29833 5.688ZM12.0759 17.2289C13.1031 18.35 14.3555 18.5188 15.6943 18.2941C16.4151 19.6468 17.1535 20.1076 18.2636 19.9191C18.7054 19.8417 19.1117 19.6273 19.4249 19.3062C19.7382 18.9851 19.9425 18.5736 20.009 18.13C20.1731 17.0186 19.6913 16.32 18.2487 15.5786C18.3635 13.8476 18.1012 13.1647 16.8397 11.9092C16.0652 11.1391 15.2801 10.3789 14.5209 9.59389C14.2731 9.31126 14.0427 9.01384 13.831 8.70327L12.1187 10.4177C13.1577 11.4572 14.2132 12.5158 15.2727 13.5713C16.0639 14.3594 16.2127 15.0157 15.7287 15.6253C15.2304 16.2528 14.6317 16.2716 13.6778 15.7126L12.0759 17.2289ZM14.9668 13.7267L13.4897 12.209C13.1407 12.5625 12.7894 12.9212 12.4351 13.2772C11.6365 14.0806 10.8511 14.8975 10.0351 15.6812C9.42066 16.2694 8.74866 16.289 8.18924 15.7959C7.93713 15.5711 7.78247 15.257 7.75803 14.9201C7.73359 14.5832 7.8413 14.25 8.05833 13.9911C8.07984 13.9543 8.10374 13.9188 8.12989 13.8851L6.62357 12.2492C5.688 13.0983 5.42313 13.9165 5.51913 15.6528L5.21804 15.8112C4.7767 16.002 4.41233 16.3356 4.18352 16.7585C3.95471 17.1814 3.87476 17.6689 3.95651 18.1427C4.02553 18.5857 4.23223 18.9957 4.54732 19.3146C4.86241 19.6335 5.26989 19.8452 5.712 19.9196C6.18336 20.0145 6.67306 19.9438 7.09828 19.7194C7.52351 19.4949 7.85817 19.1305 8.04568 18.6877C8.21062 18.3439 8.41659 18.3356 8.71462 18.3622C9.15735 18.4358 9.61088 18.4105 10.0427 18.2882C10.4745 18.1659 10.874 17.9496 11.2124 17.6548C12.5097 16.385 13.7284 15.0319 14.9668 13.7263V13.7267Z" fill="#121212"/>
<path d="M15.6061 10.1607C15.8334 9.94758 15.9759 9.65936 16.0071 9.34933C16.0384 9.03931 15.9564 8.72844 15.7763 8.47418C15.6726 8.30964 15.5319 8.17166 15.3653 8.07128C15.1987 7.9709 15.011 7.91091 14.8171 7.89611C14.6232 7.88131 14.4285 7.91211 14.2486 7.98604C14.0687 8.05998 13.9087 8.17499 13.7812 8.32189C12.7296 9.32902 11.6993 10.3584 10.6682 11.3869C10.5348 11.544 10.4151 11.7121 10.3104 11.8896L8.62167 10.1398C9.17542 9.60873 9.7728 9.03971 10.3671 8.46589C10.687 8.15651 11.0164 7.85498 11.3114 7.52247C12.4713 6.21774 13.7791 5.27956 15.6284 5.74298C16.2908 4.31607 17.0404 3.80073 18.1667 3.95389C18.621 4.01864 19.0429 4.22648 19.3711 4.54725C19.6994 4.86801 19.9168 5.28501 19.992 5.73774C20.1761 6.83171 19.6429 7.61062 18.2029 8.31229C18.3512 8.9245 18.3366 9.56488 18.1606 10.1697C17.9845 10.7745 17.653 11.3226 17.1993 11.7596L15.6061 10.1607Z" fill="#121212"/>
<path d="M8.29877 5.68756C9.57819 5.54051 10.7337 5.75084 11.6448 6.76407L9.984 8.27215C10.0084 8.28785 9.89673 8.21193 9.7824 8.14124C9.51586 7.94985 9.18559 7.86903 8.86078 7.91572C8.53598 7.96241 8.24185 8.13299 8.04 8.39171C7.83087 8.6445 7.7277 8.96842 7.7521 9.29559C7.7765 9.62277 7.92659 9.9278 8.17091 10.1468C9.2112 11.194 10.2655 12.2339 11.3092 13.2781C11.4231 13.3911 11.5274 13.5137 11.7089 13.7145L10.0237 15.0986L10.1223 15.2583C10.0152 15.1797 9.91204 15.0957 9.81339 15.0065C8.73557 13.937 7.66604 12.8592 6.58429 11.7945C6.16714 11.4065 5.85183 10.922 5.66615 10.3834C5.48047 9.84487 5.43013 9.26892 5.51957 8.70633C5.5632 8.39171 5.53833 8.20756 5.20539 8.04305C4.75526 7.84667 4.3875 7.49977 4.1652 7.06186C3.9429 6.62395 3.87992 6.12233 3.98706 5.64305C4.08167 5.20462 4.3102 4.80642 4.64104 4.50357C4.97189 4.20071 5.38868 4.00817 5.83375 3.95258C6.30941 3.88692 6.79333 3.98327 7.20756 4.22613C7.6218 4.46899 7.94222 4.8442 8.11724 5.29135C8.17659 5.41222 8.23157 5.53876 8.29877 5.68756ZM12.0759 17.2289L13.6765 15.7135C14.6321 16.2724 15.2313 16.2532 15.7274 15.6262C16.2109 15.0153 16.0625 14.3607 15.271 13.5722C14.2119 12.5167 13.1559 11.458 12.1169 10.4186L13.8292 8.70415C14.0409 9.01459 14.2713 9.31187 14.5191 9.59433C15.2784 10.3798 16.0634 11.1395 16.838 11.9097C18.0999 13.1651 18.3618 13.848 18.247 15.5791C19.6896 16.3209 20.1714 17.0191 20.0073 18.1305C19.9408 18.5741 19.7364 18.9855 19.4232 19.3066C19.1099 19.6277 18.7037 19.8421 18.2618 19.9196C17.1521 20.1081 16.4134 19.649 15.6925 18.2945C14.3555 18.5188 13.1031 18.35 12.0759 17.2289Z" fill="#121212"/>
<path d="M14.9668 13.7267C13.7284 15.0323 12.5101 16.3855 11.2115 17.6566C10.8731 17.9514 10.4736 18.1677 10.0418 18.2899C9.61 18.4122 9.15648 18.4375 8.71374 18.3639C8.41571 18.3373 8.20974 18.3456 8.0448 18.6895C7.85729 19.1322 7.52263 19.4966 7.09741 19.7211C6.67218 19.9456 6.18248 20.0163 5.71113 19.9213C5.26901 19.8469 4.86153 19.6353 4.54644 19.3164C4.23135 18.9974 4.02465 18.5874 3.95564 18.1444C3.87388 17.6706 3.95383 17.1831 4.18264 16.7602C4.41145 16.3373 4.77582 16.0037 5.21716 15.8129C5.32145 15.7588 5.42531 15.7034 5.51825 15.6545C5.42182 13.9165 5.68713 13.0983 6.62269 12.2509L8.12902 13.8868C8.1029 13.9206 8.079 13.956 8.05745 13.9929C7.84042 14.2517 7.73271 14.5849 7.75715 14.9218C7.78159 15.2587 7.93625 15.5729 8.18836 15.7977C8.74822 16.2908 9.42022 16.2711 10.0342 15.6829C10.8519 14.8975 11.6374 14.0823 12.4342 13.279C12.7881 12.9229 13.1393 12.5642 13.4889 12.2108L14.9668 13.7267Z" fill="#121212"/>
</svg>
