<svg width="24" height="24" viewBox="0 0 24 24" fill="none" xmlns="http://www.w3.org/2000/svg">
<g clip-path="url(#clip0_174_73)">
<path d="M21.5324 3.11171V21.3247H3.31812V3.11171H21.5324ZM19.6211 12.7375C18.7855 11.3267 16.7764 10.9047 15.5542 11.8918C15.1879 12.204 14.917 12.6131 14.7727 13.0721C14.3965 14.3005 14.9625 15.3535 16.2672 16.0128C16.7969 16.2807 17.3516 16.4985 17.8818 16.7668C18.0636 16.8323 18.216 16.9607 18.3113 17.1288C18.4067 17.2969 18.4386 17.4936 18.4015 17.6832C18.3542 17.8784 18.2422 18.0518 18.0837 18.1751C17.9252 18.2984 17.7295 18.3644 17.5287 18.3622C17.1359 18.4264 16.7328 18.3627 16.3789 18.1805C16.025 17.9984 15.7389 17.7073 15.5629 17.3503L14.1827 18.1575C14.5993 18.8945 15.2652 19.4588 16.0605 19.7488C16.8559 20.0388 17.7287 20.0356 18.5219 19.7398C18.9434 19.6249 19.3211 19.3868 19.6065 19.056C19.892 18.7253 20.0722 18.3168 20.1242 17.8831C20.2141 17.4456 20.1721 16.9913 20.0037 16.5777C19.8354 16.1641 19.548 15.8097 19.1782 15.5594C18.7059 15.2649 18.2163 14.9991 17.712 14.7635C17.4096 14.606 17.0893 14.4799 16.7956 14.3088C16.6294 14.2311 16.4985 14.0937 16.4288 13.924C16.3591 13.7542 16.3558 13.5645 16.4195 13.3924C16.4416 13.3032 16.4817 13.2195 16.5374 13.1464C16.5931 13.0733 16.6632 13.0124 16.7433 12.9674C16.8234 12.9225 16.9119 12.8944 17.0034 12.8849C17.0948 12.8755 17.1871 12.8848 17.2748 12.9124C17.6898 13.0733 18.0893 13.2718 18.4682 13.5055L19.6211 12.7375ZM13.4278 11.4751H8.40175V13.0211H9.90458V20.3084H11.7063V12.9866H13.4278V11.4751Z" fill="#121212"/>
</g>
<defs>
<clipPath id="clip0_174_73">
<rect width="24" height="24" fill="white"/>
</clipPath>
</defs>
</svg>
