<svg width="24" height="24" viewBox="0 0 24 24" fill="none" xmlns="http://www.w3.org/2000/svg">
<path d="M12.3709 18.1571C10.1869 18.2065 8.01172 17.864 5.94851 17.146C4.77512 16.7511 3.6901 16.1309 2.75433 15.3203C2.1948 14.8451 1.76508 14.2357 1.50546 13.5491C1.32736 13.0582 1.27419 12.5307 1.35075 12.0142C1.42731 11.4976 1.63118 11.0082 1.944 10.5901C2.61785 9.66811 3.51484 8.93238 4.55084 8.45193C6.29902 7.59412 8.19464 7.07727 10.1363 6.92902C12.2966 6.70808 14.4786 6.85235 16.591 7.35578C18.1194 7.6776 19.5649 8.31164 20.8368 9.21818C21.2708 9.53888 21.6637 9.91171 22.0067 10.3283C23.1687 11.7753 23.1155 13.4047 21.9015 14.8093C21.0865 15.7058 20.077 16.4038 18.9504 16.8497C16.9517 17.6833 14.8108 18.123 12.6454 18.1444C12.5415 18.144 12.4368 18.1536 12.3709 18.1571ZM14.2451 15.6576C14.64 15.6576 15.0096 15.6628 15.3796 15.6506C15.4233 15.6506 15.4879 15.5568 15.5005 15.4975C15.5847 15.1073 15.6646 14.7159 15.7296 14.3223C15.7519 14.1866 15.8086 14.1521 15.9351 14.1521C16.3554 14.1521 16.7764 14.1543 17.1958 14.1343C17.7923 14.1335 18.3675 13.9122 18.8106 13.5127C19.2537 13.1133 19.5334 12.5641 19.5958 11.9708C19.6559 11.7205 19.6559 11.4596 19.5958 11.2093C19.5358 10.959 19.4173 10.7265 19.2502 10.5308C19.0836 10.3585 18.8828 10.2229 18.6608 10.1327C18.4387 10.0425 18.2003 9.99976 17.9607 10.0071C17.1552 9.98967 16.3488 10.0049 15.5428 9.99491C15.3809 9.99491 15.3299 10.0486 15.3011 10.2009C15.0441 11.5562 14.7775 12.9103 14.5156 14.2647C14.4262 14.7194 14.3385 15.1719 14.2442 15.6567L14.2451 15.6576ZM4.60539 15.6576C5.00335 15.6576 5.3664 15.6628 5.72902 15.6506C5.77266 15.6506 5.84073 15.559 5.85338 15.5005C5.9376 15.1174 6.02226 14.7338 6.08073 14.3463C6.10648 14.1766 6.18066 14.1465 6.32859 14.1513C6.62269 14.1604 6.91768 14.1635 7.21135 14.1543C7.66807 14.1679 8.12276 14.088 8.54749 13.9196C9.0348 13.6852 9.43465 13.3015 9.68891 12.8243C9.94318 12.3471 10.0386 11.8012 9.96131 11.266C9.93115 11.0495 9.8493 10.8434 9.72269 10.6651C9.59608 10.4869 9.42843 10.3417 9.23389 10.2419C8.88115 10.0656 8.48941 9.98183 8.09542 9.9984C7.37368 9.9984 6.65149 10.0036 5.92975 9.99404C5.7552 9.99185 5.68888 10.0377 5.65571 10.2148C5.4336 11.3987 5.19753 12.5799 4.96757 13.7625C4.84713 14.3812 4.73062 15.0022 4.60364 15.6567L4.60539 15.6576ZM12.0607 8.4912C11.7011 8.4912 11.3725 8.49993 11.0444 8.48727C10.8842 8.48116 10.831 8.53789 10.8022 8.69105C10.5151 10.1983 10.2192 11.702 9.9264 13.21C9.86706 13.5155 9.8112 13.8236 9.7488 14.1561C10.1097 14.1561 10.4387 14.1495 10.7668 14.1591C10.9148 14.1635 10.9702 14.1155 10.9981 13.9658C11.1796 13.0019 11.3764 12.041 11.5575 11.0771C11.5846 10.934 11.64 10.8956 11.7757 10.8999C12.0419 10.9087 12.3085 10.8999 12.5747 10.8999C13.2131 10.8999 13.3636 11.0797 13.2423 11.7098C13.0979 12.4599 12.9513 13.2092 12.806 13.9593C12.7951 14.0169 12.7942 14.0767 12.7876 14.1465H13.9789C13.9933 14.126 14.006 14.1155 14.0082 14.1028C14.1897 13.1677 14.3969 12.2361 14.5431 11.2953C14.5839 11.1525 14.5911 11.0023 14.5642 10.8563C14.5373 10.7103 14.4771 10.5724 14.3882 10.4535C14.2993 10.3346 14.1841 10.2379 14.0516 10.1708C13.9192 10.1038 13.773 10.0682 13.6246 10.0669C13.2425 10.021 12.8579 9.99881 12.473 10.0006C12.2457 9.99185 12.0175 10.0006 11.7674 10.0006L12.0607 8.4912Z" fill="#121212"/>
<path d="M15.9412 13.2349C16.063 12.6092 16.1804 11.9908 16.3047 11.3738C16.4038 10.8803 16.4077 10.8759 16.9073 10.8833C17.194 10.8797 17.4806 10.8968 17.7648 10.9344C17.8503 10.9376 17.9342 10.959 18.0108 10.9972C18.0874 11.0354 18.1549 11.0895 18.209 11.1558C18.263 11.2222 18.3023 11.2993 18.3242 11.382C18.3461 11.4648 18.3501 11.5512 18.336 11.6356C18.3118 11.9482 18.243 12.2558 18.1318 12.5489C18.053 12.7468 17.9174 12.9168 17.742 13.0376C17.5666 13.1584 17.3594 13.2245 17.1465 13.2275C16.7585 13.262 16.3654 13.2349 15.9412 13.2349ZM6.30153 13.2305C6.44771 12.4783 6.59084 11.7299 6.74226 10.9828C6.75411 10.9575 6.77209 10.9356 6.79456 10.919C6.81704 10.9023 6.84331 10.8916 6.87099 10.8877C7.27641 10.8814 7.6819 10.8959 8.08582 10.9313C8.1786 10.9311 8.27027 10.9515 8.35416 10.9911C8.43806 11.0307 8.51208 11.0885 8.57084 11.1603C8.6296 11.2321 8.67162 11.3161 8.69385 11.4062C8.71608 11.4962 8.71796 11.5901 8.69935 11.681C8.68897 11.8696 8.65974 12.0568 8.61208 12.2396C8.56881 12.5024 8.43774 12.7429 8.24025 12.9216C8.04276 13.1004 7.79051 13.207 7.52466 13.224C7.13106 13.2607 6.72917 13.2305 6.30153 13.2305Z" fill="#121212"/>
</svg>
