<svg width="24" height="24" viewBox="0 0 24 24" fill="none" xmlns="http://www.w3.org/2000/svg">
<g clip-path="url(#clip0_174_94)">
<path d="M22.3885 8.41702C21.631 8.29789 20.8774 8.12945 20.1155 8.06793C15.9626 7.73062 12.7946 9.7728 11.3328 13.6809C10.6948 15.372 10.4009 17.1734 10.4684 18.9796C10.4797 19.2912 10.4684 19.6036 10.4684 19.9488H3.50444C3.65193 19.3156 3.74924 18.7012 3.93818 18.1161C5.2752 13.9798 7.50938 10.4644 11.2547 8.11767C14.9105 5.8272 18.6201 6.11738 22.2847 8.18662C22.3564 8.2208 22.4305 8.24997 22.5063 8.27389L22.3885 8.41702Z" fill="#121212"/>
<path d="M16.2742 12.3412C17.7142 12.3412 19.1232 12.2897 20.5257 12.3578C21.0835 12.4219 21.6045 12.6685 22.0078 13.0591C22.4111 13.4498 22.6741 13.9627 22.7559 14.5183C22.9837 16.0071 22.4505 17.1364 21.2771 17.6352C21.1536 17.688 21.0249 17.7295 20.8263 17.8032L23.2355 20.3341C22.193 20.3341 21.2762 20.3472 20.3607 20.3206C20.2172 20.3162 20.0627 20.146 19.9405 20.0252C19.45 19.5377 18.97 19.0399 18.3761 18.4337V20.3009H16.2737L16.2742 12.3412ZM18.2666 16.2249C18.7772 16.2249 19.2676 16.2502 19.7542 16.2175C20.2189 16.1865 20.3799 15.8527 20.3686 15.432C20.3564 14.9865 20.3062 14.5065 19.7577 14.4284C19.261 14.3899 18.7622 14.3852 18.2649 14.4144L18.2666 16.2249ZM2.92756 16.9828L0.947782 16.2118C1.11622 15.7754 1.27418 15.3578 1.43607 14.9428C1.5936 14.5396 1.75462 14.1377 1.94138 13.6669L4.02196 14.4236L2.92756 16.9828ZM11.5161 17.3516C11.7779 17.4292 11.9136 17.4607 12.0397 17.5078C12.5337 17.6902 13.2711 17.7434 13.4627 18.0943C13.7812 18.6755 13.7481 19.4492 13.8764 20.2202C13.1782 20.0457 12.5725 19.91 11.9769 19.735C11.9031 19.7081 11.8366 19.6645 11.7827 19.6074C11.7287 19.5504 11.6889 19.4816 11.6662 19.4064C11.5946 18.7436 11.5649 18.0764 11.5161 17.3516ZM6.17847 8.30225L7.48756 9.49833C6.99098 10.0748 6.53062 10.6106 6.0672 11.1443C6.018 11.1875 5.96414 11.2251 5.90662 11.2564L4.51636 10.0708L6.17847 8.30225ZM13.2973 16.5251L11.6099 15.8452L12.2644 13.3649C13.7201 14.2115 13.7236 14.222 13.2973 16.5251ZM8.97687 6.06502L10.9671 4.9536L11.849 6.36044L9.86662 7.46793L8.97687 6.06502ZM14.3284 13.1852L13.0329 12.0209L14.5968 10.3475C14.9101 10.8096 15.1802 11.1679 15.3984 11.5558C15.4212 11.6305 15.4265 11.7095 15.4138 11.7866C15.4012 11.8637 15.371 11.9369 15.3255 12.0004C15.0284 12.391 14.6932 12.7553 14.3284 13.1852ZM21.552 6.77891C20.8412 6.51709 20.174 6.28145 19.5199 6.01527C19.4586 5.97893 19.4065 5.9289 19.3677 5.8691C19.329 5.8093 19.3046 5.74134 19.2964 5.67054C19.2838 5.32145 19.3248 4.96625 19.351 4.50894C20.1081 4.7952 20.8045 5.04611 21.487 5.33018C21.5434 5.37363 21.5891 5.42958 21.6203 5.49363C21.6515 5.55769 21.6674 5.6281 21.6668 5.69934C21.6563 6.04887 21.5961 6.39665 21.552 6.77891ZM18.3351 10.2903L16.3519 11.0631L15.658 9.70822C16.3497 9.47084 17.0029 9.23433 17.6653 9.03404C17.7434 9.01047 17.9328 9.16189 17.9817 9.27185C18.1174 9.57731 18.2051 9.9024 18.3351 10.2903ZM16.5343 5.47942L14.2311 5.60029L13.7856 4.28291C14.5121 4.21527 15.1894 4.13978 15.8688 4.10138C15.9377 4.1141 16.0026 4.14312 16.058 4.186C16.1134 4.22889 16.1578 4.28441 16.1873 4.34793C16.3213 4.69134 16.4081 5.05265 16.5343 5.47942ZM21.5603 10.4924C20.9311 10.4321 20.3651 10.3889 19.8035 10.313C19.7446 10.2934 19.6913 10.26 19.6479 10.2156C19.6046 10.1712 19.5725 10.1171 19.5543 10.0577C19.4784 9.696 19.4426 9.32553 19.3728 8.82371L21.7034 9.12611L21.5603 10.4924Z" fill="#121212"/>
</g>
<defs>
<clipPath id="clip0_174_94">
<rect width="24" height="24" fill="white"/>
</clipPath>
</defs>
</svg>
