<svg xmlns="http://www.w3.org/2000/svg" width="65.161" height="51.056" viewBox="0 0 65.161 51.056">
  <g id="Group_27158" data-name="Group 27158" transform="translate(-96 -5165.238)">
    <path id="Path_21451" data-name="Path 21451" d="M56.808,11.283l8.353-3.077V0L55.05,7.913a2.1,2.1,0,0,0-1.026,1.709,1.906,1.906,0,0,0,2.784,1.661M54.024,39.761H59.4V13.872H54.024Zm-24.374,0h5.373V29.8H48.455V24.911H35.023c-.1-4.054,2.638-6.5,6.4-6.5a8.916,8.916,0,0,1,5.129,1.661l3.419-3.859a13.52,13.52,0,0,0-8.4-2.833c-7.083,0-11.918,4.689-11.918,11.528ZM5.471,24.081c.782-3.517,3.566-5.666,7.424-5.666,3.908,0,6.5,2.149,6.985,5.666Zm19.929,2.2c0-5.959-4.3-12.9-12.5-12.9C5.666,13.384,0,18.806,0,26.621S5.715,40.249,13.433,40.249a13.774,13.774,0,0,0,11.186-5.666l-3.761-3.077a9.066,9.066,0,0,1-7.571,3.712,7.448,7.448,0,0,1-7.815-6.252H22.748A2.356,2.356,0,0,0,25.4,26.279" transform="translate(96 5165.238)" fill="#586475"/>
    <path id="Path_21452" data-name="Path 21452" d="M105.38,141.781h-.3l2.538,6.168h1.244l-2.716-6.345a.915.915,0,0,0-.888-.635.952.952,0,0,0-.914.635l-2.715,6.345h1.218Zm-10.533,6.168h1.142v-6.98H94.847Zm3.426-3.274a2.023,2.023,0,0,0,2.157-1.954c0-1.066-.838-1.752-2.107-1.752h-2.97v1.016h2.817a.944.944,0,0,1,1.066.939.961.961,0,0,1-.965,1.015Zm11.879,3.274h1.142l-.051-6.295-.609.229,4.036,5.584a1.01,1.01,0,0,0,.812.482.7.7,0,0,0,.66-.761v-6.219H115l.051,6.3.609-.229-4.036-5.584a.932.932,0,0,0-.787-.482.718.718,0,0,0-.685.762Zm-7.234-1.4h4.67v-1.015h-4.67Zm20.229,1.4h1.447l-3.223-3.5,3.2-3.477H123.1l-2.64,2.919a.763.763,0,0,0,0,1.142Zm-4.671,0h1.142v-6.98h-1.142Zm-23.122,0H98.3c1.548,0,2.411-.761,2.411-1.929a2.227,2.227,0,0,0-2.437-2.081H95.354v1.015h3.071c.634,0,1.066.33,1.066.914,0,.659-.533,1.066-1.294,1.066H95.354Z" transform="translate(30.809 5068.345)" fill="#586475"/>
  </g>
</svg>
