<svg id="share" xmlns="http://www.w3.org/2000/svg" width="20.001" height="20" viewBox="0 0 20.001 20">
  <rect id="canvas" width="20" height="20" fill="none"/>
  <path id="Icon_Compartilhar-2" data-name="Icon Compartilhar-2" d="M122.95,83.75a2.5,2.5,0,0,1,2.5-2.5h10a4.5,4.5,0,0,1,4.5,4.5v10a4.5,4.5,0,0,1-4.5,4.5h-10a2.5,2.5,0,0,1-2.5-2.5v-1a.5.5,0,0,1,1,0v1a1.5,1.5,0,0,0,1.5,1.5h10a3.5,3.5,0,0,0,3.5-3.5v-10a3.5,3.5,0,0,0-3.5-3.5h-10a1.5,1.5,0,0,0-1.5,1.5v1a.5.5,0,0,1-1,0ZM130.1,86.4a.5.5,0,0,1,.707,0l4,4a.5.5,0,0,1,0,.707l-4,4a.5.5,0,0,1-.707-.707l3.147-3.146H120.45a.5.5,0,1,1,0-1h12.793L130.1,87.1a.5.5,0,0,1,0-.707Z" transform="translate(-119.949 -80.75)" fill="#fff" fill-rule="evenodd"/>
</svg>
